<?xml version="1.0" standalone="no"?>
<!DOCTYPE svg PUBLIC "-//W3C//DTD SVG 20010904//EN"
 "http://www.w3.org/TR/2001/REC-SVG-20010904/DTD/svg10.dtd">
<svg version="1.0" xmlns="http://www.w3.org/2000/svg"
 width="848.000000pt" height="848.000000pt" viewBox="0 0 848.000000 848.000000"
 preserveAspectRatio="xMidYMid meet">
<metadata>
Created by potrace 1.11, written by Peter Selinger 2001-2013
</metadata>
<g transform="translate(0.000000,848.000000) scale(0.100000,-0.100000)"
fill="#000000" stroke="none">
<path d="M2559 8407 c-2 -3 -29 -7 -59 -11 -125 -14 -195 -37 -205 -70 -3 -11
-9 -66 -12 -121 -6 -113 -6 -106 1 -160 14 -112 17 -131 22 -147 3 -9 7 -26 9
-39 30 -154 129 -384 234 -542 86 -130 234 -294 328 -364 21 -15 40 -30 43
-34 16 -18 138 -91 220 -131 80 -39 266 -105 320 -114 13 -3 48 -10 100 -20
92 -20 397 -26 495 -11 113 18 145 31 152 62 1 6 4 21 8 35 12 52 6 209 -12
310 -3 19 -7 44 -8 55 -5 49 -66 256 -82 280 -7 11 -13 25 -13 33 0 18 -110
235 -124 244 -6 4 -8 8 -4 8 9 0 -81 134 -93 138 -5 2 -9 8 -9 14 0 5 -6 16
-12 23 -7 7 -47 51 -88 97 -145 161 -318 284 -507 359 -13 5 -33 13 -45 18
-26 11 -86 30 -114 36 -10 2 -34 8 -52 14 -18 5 -35 10 -37 10 -7 -1 -85 12
-110 18 -27 6 -340 15 -346 10z"/>
<path d="M5248 6196 c-1 -2 -57 -6 -123 -10 -66 -3 -131 -7 -145 -9 -14 -2
-50 -8 -80 -12 -30 -4 -64 -9 -75 -12 -11 -2 -31 -6 -45 -8 -14 -2 -68 -16
-120 -30 -52 -15 -99 -28 -105 -29 -29 -8 -206 -77 -259 -102 -56 -26 -73 -24
-158 15 -83 38 -155 67 -198 79 -124 36 -179 51 -203 56 -15 2 -35 7 -45 10
-25 7 -109 21 -207 33 -123 16 -524 7 -595 -13 -8 -2 -38 -6 -65 -10 -27 -3
-53 -8 -58 -11 -4 -3 -18 -6 -30 -8 -96 -12 -351 -102 -497 -175 -167 -84
-386 -230 -480 -319 -15 -14 -49 -47 -76 -72 -70 -67 -143 -145 -197 -214 -26
-33 -51 -65 -55 -70 -5 -6 -17 -24 -28 -40 -10 -17 -21 -32 -24 -35 -14 -13
-81 -124 -122 -200 -40 -73 -135 -285 -143 -315 -1 -5 -8 -23 -14 -40 -19 -46
-90 -262 -95 -290 -3 -14 -7 -29 -11 -34 -6 -10 -63 -276 -69 -320 -4 -34 -17
-120 -22 -151 -28 -176 -25 -639 6 -845 5 -33 11 -82 15 -109 3 -27 8 -52 10
-55 1 -3 6 -22 9 -41 3 -19 8 -46 11 -60 4 -14 8 -37 11 -52 3 -15 16 -66 30
-115 14 -48 26 -95 28 -104 11 -45 87 -251 134 -364 44 -105 199 -397 214
-403 4 -2 8 -8 8 -13 0 -11 72 -123 83 -127 4 -2 7 -10 7 -17 0 -7 3 -15 8
-17 4 -2 22 -25 41 -53 33 -48 127 -167 181 -230 46 -53 304 -310 355 -352
159 -134 343 -264 500 -354 33 -19 74 -42 90 -52 145 -84 533 -241 680 -276
35 -8 154 -39 335 -88 199 -53 327 -68 575 -68 210 0 367 14 460 41 6 2 24 5
40 8 29 6 53 12 155 41 25 7 79 21 120 30 41 9 107 26 145 37 39 11 72 20 75
20 3 0 25 8 50 18 25 10 47 18 50 18 60 6 514 212 578 263 14 10 29 19 34 19
12 0 212 130 216 141 2 5 8 9 14 9 6 0 23 10 38 23 15 12 40 31 56 42 15 11
36 27 45 36 9 9 23 21 31 25 37 22 123 100 263 239 142 142 169 171 277 305
161 201 322 471 448 755 65 144 164 453 185 574 3 19 8 38 11 43 3 4 6 22 8
40 2 18 6 47 10 63 3 17 9 41 12 55 3 14 7 48 10 75 3 28 7 61 10 75 17 86 25
557 11 690 -3 36 -9 90 -12 120 -3 30 -8 66 -11 80 -3 14 -8 41 -10 60 -3 19
-6 44 -9 55 -18 93 -27 134 -50 225 -56 221 -163 501 -272 708 -30 58 -59 110
-64 116 -5 6 -46 64 -91 128 -46 64 -97 131 -113 150 -17 18 -32 36 -33 40 -4
9 -187 188 -227 222 -337 281 -709 451 -1120 512 -22 3 -51 8 -65 10 -14 3
-72 7 -130 10 -58 2 -110 6 -117 9 -6 2 -13 2 -15 1z"/>
</g>
</svg>
