<?xml version="1.0" encoding="utf-8"?>
<!-- Generator: Adobe Illustrator 21.0.2, SVG Export Plug-In . SVG Version: 6.00 Build 0)  -->
<svg version="1.1" id="Layer_1" xmlns="http://www.w3.org/2000/svg" xmlns:xlink="http://www.w3.org/1999/xlink" x="0px" y="0px"
	 viewBox="0 0 226.7 226.8" style="enable-background:new 0 0 226.7 226.8;" xml:space="preserve">
<style type="text/css">
	.st0{fill:#F38888;}
	.st1{fill:#EE3B3B;}
	.st2{fill:#FFFFFF;}
	.st3{fill:#F16262;}
	.st4{fill:none;stroke:#EE3B3B;stroke-width:2;stroke-linejoin:round;}
	.st5{fill:none;stroke:#EE3B3B;stroke-width:2;stroke-linejoin:round;stroke-dasharray:8.1365,8.1365;}
	.st6{fill:none;stroke:#EE3B3B;stroke-width:2;}
	.st7{fill:none;stroke:#EE3B3B;stroke-width:2;stroke-dasharray:7.5339,7.5339;}
	.st8{fill:none;stroke:#EE3B3B;stroke-width:2;stroke-dasharray:7.8832,7.8832;}
	.st9{fill:none;stroke:#EE3B3B;stroke-width:2;stroke-dasharray:9.0769,9.0769;}
	.st10{fill:none;stroke:#EE3B3B;stroke-width:2;stroke-dasharray:8.2443,8.2443;}
	.st11{fill:none;stroke:#EE3B3B;stroke-width:2;stroke-dasharray:7.196,7.196;}
	.st12{fill:none;stroke:#EE3B3B;stroke-width:2;stroke-dasharray:8,8;}
	.st13{fill:none;stroke:#EE3B3B;stroke-width:2;stroke-dasharray:8.1423,8.1423;}
	.st14{fill:none;stroke:#EE3B3B;stroke-width:3;stroke-dasharray:8,8;}
	.st15{fill:#FFFFFF;stroke:#EE3B3B;stroke-width:3;stroke-dasharray:8,8;}
	.st16{fill:none;stroke:#FFFFFF;stroke-width:2.7;}
	.st17{fill:#F7A4A6;}
	.st18{fill:#424143;}
	.st19{opacity:0.24;fill:#A01D21;}
	.st20{opacity:0.24;fill:#231F20;}
</style>
<g>
	<circle class="st2" cx="113.3" cy="113.4" r="89.2"/>
	<path class="st1" d="M202.6,113.4c0,49.3-39.9,89.2-89.2,89.2s-89.2-39.9-89.2-89.2H202.6z"/>
	<g>
		<path class="st2" d="M92.2,129.1c0.6,0.5,0.9,1.2,0.9,2.2c0,0.9-0.2,1.7-0.6,2.4c-0.4,0.7-1,1.2-1.8,1.6c-0.8,0.4-1.7,0.6-2.7,0.6
			h-2.3l-0.6,3.1h-2l2.1-10.6h4.3C90.7,128.3,91.6,128.6,92.2,129.1z M90.4,133.4c0.5-0.4,0.7-1,0.7-1.8c0-0.5-0.2-0.9-0.5-1.1
			c-0.3-0.3-0.8-0.4-1.5-0.4h-2.2l-0.8,3.9h2.2C89.2,134,89.9,133.8,90.4,133.4z"/>
		<path class="st2" d="M100.8,131.7c0.7,0.6,1,1.5,1,2.6c0,0.4-0.1,0.9-0.2,1.3h-6.2c0.1,0.6,0.3,1,0.7,1.4s0.9,0.5,1.5,0.5
			c0.8,0,1.5-0.2,2.1-0.7l0.9,1.2c-0.9,0.7-1.9,1.1-3.1,1.1c-0.8,0-1.5-0.2-2.2-0.5c-0.6-0.3-1.1-0.7-1.4-1.3
			c-0.3-0.6-0.5-1.2-0.5-2c0-0.9,0.2-1.6,0.6-2.3c0.4-0.7,1-1.2,1.7-1.6c0.7-0.4,1.5-0.6,2.4-0.6
			C99.3,130.8,100.2,131.1,100.8,131.7z M99.6,132.8c-0.3-0.3-0.8-0.5-1.4-0.5c-0.6,0-1.1,0.2-1.6,0.5c-0.5,0.4-0.8,0.8-1,1.4h4.4
			C100,133.7,99.9,133.2,99.6,132.8z"/>
		<path class="st2" d="M110.9,131.4c0.5,0.5,0.8,1.1,0.8,1.9c0,0.3,0,0.5-0.1,0.8l-1,4.8h-2l0.9-4.5c0-0.2,0-0.3,0-0.5
			c0-0.5-0.1-0.8-0.4-1.1c-0.3-0.3-0.7-0.4-1.2-0.4c-0.6,0-1.1,0.2-1.5,0.6c-0.4,0.4-0.7,0.9-0.9,1.6l-0.9,4.3h-2l1.6-8.1h2
			l-0.2,1.2c0.6-0.8,1.5-1.3,2.6-1.3C109.6,130.7,110.4,131,110.9,131.4z"/>
		<path class="st2" d="M113.8,138.6c-0.7-0.3-1.2-0.7-1.6-1.1l0.9-1.3c0.3,0.4,0.8,0.7,1.3,0.9c0.5,0.2,1,0.4,1.5,0.4
			c0.4,0,0.7-0.1,0.9-0.2c0.2-0.2,0.3-0.4,0.3-0.6c0-0.2-0.1-0.4-0.3-0.6c-0.2-0.2-0.6-0.3-1-0.5c-0.5-0.2-0.8-0.4-1.1-0.5
			c-0.3-0.2-0.6-0.4-0.8-0.7c-0.2-0.3-0.3-0.7-0.3-1.1c0-0.5,0.1-0.9,0.4-1.3s0.6-0.7,1.1-0.9c0.5-0.2,1-0.3,1.6-0.3
			c0.6,0,1.2,0.1,1.8,0.3s1.1,0.5,1.5,0.9l-0.9,1.3c-0.4-0.3-0.8-0.5-1.3-0.7c-0.4-0.2-0.8-0.3-1.2-0.3c-0.3,0-0.6,0.1-0.8,0.2
			s-0.3,0.3-0.3,0.6c0,0.2,0.1,0.4,0.3,0.5c0.2,0.1,0.6,0.3,1,0.5c0.5,0.2,0.9,0.4,1.2,0.6c0.3,0.2,0.6,0.4,0.8,0.7
			c0.2,0.3,0.3,0.7,0.3,1.1c0,0.5-0.1,0.9-0.4,1.3s-0.6,0.7-1.1,0.9c-0.5,0.2-1,0.3-1.6,0.3C115.2,139,114.5,138.9,113.8,138.6z"/>
		<path class="st2" d="M123.9,130.8l-1.6,8.1h-2l1.6-8.1H123.9z M124.3,127.6c0.2,0.2,0.3,0.4,0.3,0.7c0,0.4-0.1,0.7-0.4,1
			c-0.3,0.3-0.6,0.4-1,0.4c-0.3,0-0.5-0.1-0.7-0.3c-0.2-0.2-0.3-0.4-0.3-0.7c0-0.4,0.1-0.7,0.4-1c0.3-0.3,0.6-0.4,1-0.4
			C123.9,127.3,124.1,127.4,124.3,127.6z"/>
		<path class="st2" d="M131.6,131.2c0.6,0.3,1,0.7,1.4,1.3s0.5,1.2,0.5,1.9c0,0.9-0.2,1.7-0.6,2.4c-0.4,0.7-1,1.2-1.7,1.6
			c-0.7,0.4-1.5,0.6-2.4,0.6c-0.8,0-1.5-0.2-2.1-0.5c-0.6-0.3-1-0.8-1.4-1.3c-0.3-0.6-0.5-1.2-0.5-2c0-0.9,0.2-1.7,0.6-2.3
			c0.4-0.7,1-1.2,1.7-1.6s1.5-0.6,2.4-0.6C130.3,130.8,131,130.9,131.6,131.2z M128.1,132.8c-0.4,0.2-0.7,0.6-0.9,1
			c-0.2,0.4-0.3,0.9-0.3,1.4c0,0.7,0.2,1.2,0.6,1.6c0.4,0.4,0.9,0.6,1.5,0.6c0.5,0,0.9-0.1,1.3-0.3c0.4-0.2,0.7-0.6,0.9-1
			s0.3-0.9,0.3-1.4c0-0.6-0.2-1.2-0.6-1.6c-0.4-0.4-0.9-0.6-1.5-0.6C128.9,132.5,128.5,132.6,128.1,132.8z"/>
		<path class="st2" d="M142.5,131.4c0.5,0.5,0.8,1.1,0.8,1.9c0,0.3,0,0.5-0.1,0.8l-1,4.8h-2l0.9-4.5c0-0.2,0-0.3,0-0.5
			c0-0.5-0.1-0.8-0.4-1.1c-0.3-0.3-0.7-0.4-1.2-0.4c-0.6,0-1.1,0.2-1.5,0.6c-0.4,0.4-0.7,0.9-0.9,1.6l-0.9,4.3h-2l1.6-8.1h2
			l-0.2,1.2c0.6-0.8,1.5-1.3,2.6-1.3C141.3,130.7,142,131,142.5,131.4z"/>
	</g>
	<g>
		<path class="st2" d="M84.6,157c0.7,0.4,1.7,0.8,3.1,1.2s2.6,0.8,3.5,1.2c0.9,0.4,1.7,1,2.3,1.9c0.6,0.8,1,1.9,1,3.3
			c0,1.7-0.6,3.1-1.8,4.2c-1.2,1.1-2.7,1.7-4.6,2v4.3h-3.4v-4.3c-1.4-0.2-2.7-0.5-4-1.1c-1.3-0.6-2.4-1.2-3.4-2.1l1.9-3.8
			c1,0.9,2.2,1.7,3.6,2.3c1.4,0.6,2.6,0.9,3.7,0.9c1,0,1.7-0.2,2.3-0.5c0.5-0.4,0.8-0.9,0.8-1.5c0-0.5-0.2-1-0.5-1.3
			c-0.4-0.3-0.8-0.6-1.4-0.8s-1.3-0.5-2.3-0.7c-1.4-0.4-2.6-0.8-3.5-1.2c-0.9-0.4-1.7-1-2.3-1.8c-0.6-0.8-1-1.9-1-3.2
			c0-1.6,0.6-3,1.7-4s2.6-1.7,4.5-2v-4h3.4v4c1.2,0.1,2.3,0.4,3.4,0.8c1.1,0.4,2,0.8,2.9,1.4l-1.8,3.9c-1.1-0.6-2.2-1.2-3.4-1.5
			c-1.2-0.4-2.2-0.6-3.1-0.6c-0.8,0-1.4,0.1-1.9,0.4c-0.5,0.3-0.7,0.7-0.7,1.3C83.6,156.1,83.9,156.6,84.6,157z"/>
		<path class="st2" d="M112.4,162.2v3.7h-2.8v4.7h-4.3V166h-9.6v-3.3L102,150h4.4l-5.9,12.2h4.8v-4.6h4.3v4.6H112.4z"/>
		<path class="st2" d="M126.8,158.3c1.2,0.5,2.1,1.3,2.8,2.2s1,2,1,3.2c0,1.4-0.3,2.7-1,3.7s-1.6,1.9-2.9,2.5
			c-1.2,0.6-2.7,0.9-4.3,0.9c-1.3,0-2.7-0.2-4.2-0.7c-1.4-0.5-2.7-1.1-3.8-1.8l1.8-3.5c0.9,0.7,1.8,1.3,2.8,1.7c1,0.4,2,0.6,2.9,0.6
			c1.2,0,2.1-0.3,2.7-0.8s1-1.3,1-2.2c0-0.9-0.3-1.6-1-2.1s-1.6-0.7-2.9-0.7c-0.7,0-1.7,0-2.9,0c-1.2,0-2.1,0.1-2.7,0.1V150h13.6
			v3.9h-9.3v3.6h2.3C124.3,157.5,125.6,157.8,126.8,158.3z"/>
		<path class="st2" d="M144.4,170.6l-3.8-6.5l-2,2.2v4.3H134v-21.9h4.5v12l5.8-6h5.2l-5.8,6.1l6.1,9.7H144.4z"/>
	</g>
</g>
</svg>
