<?xml version="1.0" encoding="utf-8"?>
<!-- Generator: Adobe Illustrator 21.0.2, SVG Export Plug-In . SVG Version: 6.00 Build 0)  -->
<svg version="1.1" id="Layer_1" xmlns="http://www.w3.org/2000/svg" xmlns:xlink="http://www.w3.org/1999/xlink" x="0px" y="0px"
	 viewBox="0 0 226.7 226.8" style="enable-background:new 0 0 226.7 226.8;" xml:space="preserve">
<style type="text/css">
	.st0{fill:#F38888;}
	.st1{fill:#EE3B3B;}
	.st2{fill:#FFFFFF;}
	.st3{fill:#F16262;}
	.st4{fill:none;stroke:#EE3B3B;stroke-width:2;stroke-linejoin:round;}
	.st5{fill:none;stroke:#EE3B3B;stroke-width:2;stroke-linejoin:round;stroke-dasharray:8.1365,8.1365;}
	.st6{fill:none;stroke:#EE3B3B;stroke-width:2;}
	.st7{fill:none;stroke:#EE3B3B;stroke-width:2;stroke-dasharray:7.5339,7.5339;}
	.st8{fill:none;stroke:#EE3B3B;stroke-width:2;stroke-dasharray:7.8832,7.8832;}
	.st9{fill:none;stroke:#EE3B3B;stroke-width:2;stroke-dasharray:9.0769,9.0769;}
	.st10{fill:none;stroke:#EE3B3B;stroke-width:2;stroke-dasharray:8.2443,8.2443;}
	.st11{fill:none;stroke:#EE3B3B;stroke-width:2;stroke-dasharray:7.196,7.196;}
	.st12{fill:none;stroke:#EE3B3B;stroke-width:2;stroke-dasharray:8,8;}
	.st13{fill:none;stroke:#EE3B3B;stroke-width:2;stroke-dasharray:8.1423,8.1423;}
	.st14{fill:none;stroke:#EE3B3B;stroke-width:3;stroke-dasharray:8,8;}
	.st15{fill:#FFFFFF;stroke:#EE3B3B;stroke-width:3;stroke-dasharray:8,8;}
	.st16{fill:none;stroke:#FFFFFF;stroke-width:2.7;}
	.st17{fill:#F7A4A6;}
	.st18{fill:#424143;}
	.st19{opacity:0.24;fill:#A01D21;}
	.st20{opacity:0.24;fill:#231F20;}
</style>
<g>
	<circle class="st2" cx="113.3" cy="113.4" r="89.2"/>
	<g>
		<path class="st1" d="M95.7,111.9c0.6,0.2,1.2,0.5,1.7,0.8l-1,1.8c-0.5-0.3-1-0.6-1.6-0.8c-0.6-0.2-1.1-0.3-1.5-0.3
			c-0.5,0-0.9,0.1-1.2,0.3c-0.3,0.2-0.5,0.5-0.5,0.8c0,0.3,0.1,0.5,0.3,0.7c0.2,0.2,0.4,0.3,0.7,0.4c0.3,0.1,0.6,0.2,1.1,0.4
			c0.6,0.2,1.2,0.4,1.6,0.6c0.4,0.2,0.8,0.5,1,0.8c0.3,0.4,0.4,0.8,0.4,1.4c0,0.7-0.2,1.4-0.6,1.9c-0.4,0.5-0.9,1-1.6,1.2
			c-0.7,0.3-1.4,0.4-2.2,0.4c-0.8,0-1.6-0.2-2.4-0.5c-0.8-0.3-1.4-0.7-1.9-1.3l1-1.7c0.5,0.5,1,0.9,1.7,1.2s1.2,0.4,1.8,0.4
			c0.6,0,1.1-0.1,1.4-0.4c0.3-0.2,0.5-0.6,0.5-1c0-0.3-0.1-0.5-0.3-0.7c-0.2-0.2-0.4-0.3-0.7-0.4c-0.3-0.1-0.7-0.2-1.1-0.4
			c-0.6-0.2-1.2-0.4-1.6-0.6s-0.8-0.5-1-0.8c-0.3-0.4-0.4-0.8-0.4-1.4c0-0.7,0.2-1.3,0.5-1.8s0.9-0.9,1.5-1.2
			c0.7-0.3,1.4-0.4,2.2-0.4C94.4,111.6,95.1,111.7,95.7,111.9z"/>
		<path class="st1" d="M99.7,122c-0.5-0.3-0.9-0.7-1.2-1.3c-0.3-0.6-0.4-1.2-0.4-1.9c0-0.9,0.2-1.7,0.6-2.4c0.4-0.7,0.9-1.3,1.6-1.7
			c0.7-0.4,1.4-0.6,2.2-0.6c0.7,0,1.3,0.1,1.7,0.4c0.5,0.3,0.8,0.7,1,1.3l0.3-1.6h2l-1.6,8.1h-2l0.2-1.1c-0.4,0.4-0.8,0.7-1.3,0.9
			c-0.5,0.2-1,0.3-1.5,0.3C100.8,122.5,100.2,122.3,99.7,122z M103.5,120.5c0.4-0.3,0.7-0.6,1-1c0.2-0.4,0.3-0.9,0.3-1.4
			c0-0.6-0.2-1.2-0.5-1.5s-0.9-0.6-1.5-0.6c-0.5,0-0.9,0.1-1.3,0.4c-0.4,0.3-0.7,0.6-1,1c-0.2,0.4-0.4,0.9-0.4,1.4
			c0,0.6,0.2,1.1,0.6,1.5c0.4,0.4,0.9,0.6,1.5,0.6C102.6,120.8,103.1,120.7,103.5,120.5z"/>
		<path class="st1" d="M112.7,111.1l-2.2,11.3h-2l2.2-11.3H112.7z"/>
		<path class="st1" d="M114.6,122c-0.5-0.3-0.9-0.7-1.2-1.3c-0.3-0.6-0.4-1.2-0.4-1.9c0-0.9,0.2-1.7,0.6-2.4
			c0.4-0.7,0.9-1.3,1.6-1.7c0.7-0.4,1.4-0.6,2.2-0.6c0.7,0,1.3,0.1,1.7,0.4c0.5,0.3,0.8,0.7,1,1.3l0.3-1.6h2l-1.6,8.1h-2l0.2-1.1
			c-0.4,0.4-0.8,0.7-1.3,0.9c-0.5,0.2-1,0.3-1.5,0.3C115.7,122.5,115.1,122.3,114.6,122z M118.4,120.5c0.4-0.3,0.7-0.6,1-1
			c0.2-0.4,0.3-0.9,0.3-1.4c0-0.6-0.2-1.2-0.5-1.5c-0.4-0.4-0.8-0.6-1.5-0.6c-0.5,0-0.9,0.1-1.3,0.4c-0.4,0.3-0.7,0.6-1,1
			c-0.2,0.4-0.4,0.9-0.4,1.4c0,0.6,0.2,1.1,0.6,1.5c0.4,0.4,0.9,0.6,1.5,0.6C117.5,120.8,118,120.7,118.4,120.5z"/>
		<path class="st1" d="M127.9,114.6c0.5-0.3,1.1-0.4,1.7-0.4l-0.2,1.9l-0.3,0c-0.7,0-1.4,0.2-1.9,0.6c-0.5,0.4-0.9,1-1.1,1.7l-0.8,4
			h-2l1.6-8.1h2l-0.3,1.5C127,115.2,127.4,114.8,127.9,114.6z"/>
		<path class="st1" d="M138.6,114.2l-5.5,9.2c-0.7,1.3-1.8,1.9-3.1,1.9c-0.4,0-0.8-0.1-1.1-0.2c-0.3-0.1-0.6-0.3-0.9-0.6l1-1.4
			c0.3,0.2,0.6,0.3,0.9,0.3c0.5,0,1-0.3,1.5-0.9l0.4-0.5l-1.7-8h2l1.1,6l3.3-6H138.6z"/>
	</g>
	<g>
		<path class="st1" d="M83,142.5c0.7,0.4,1.7,0.8,3.1,1.2c1.4,0.4,2.6,0.8,3.5,1.2c0.9,0.4,1.7,1,2.3,1.9c0.6,0.8,1,1.9,1,3.3
			c0,1.7-0.6,3.1-1.8,4.2c-1.2,1.1-2.7,1.7-4.6,2v4.3h-3.4v-4.3c-1.4-0.2-2.7-0.5-4-1.1c-1.3-0.5-2.4-1.2-3.4-2.1l1.9-3.8
			c1,0.9,2.2,1.7,3.6,2.3c1.4,0.6,2.6,0.9,3.7,0.9c1,0,1.7-0.2,2.3-0.5c0.5-0.4,0.8-0.9,0.8-1.5c0-0.5-0.2-1-0.5-1.3
			c-0.4-0.3-0.8-0.6-1.4-0.8c-0.6-0.2-1.3-0.5-2.3-0.7c-1.4-0.4-2.6-0.8-3.5-1.2c-0.9-0.4-1.7-1-2.3-1.8c-0.6-0.8-1-1.9-1-3.2
			c0-1.6,0.6-3,1.7-4c1.1-1.1,2.6-1.7,4.5-2v-4h3.4v4c1.2,0.1,2.3,0.4,3.4,0.8c1.1,0.4,2,0.8,2.9,1.4l-1.8,3.9
			c-1.1-0.6-2.2-1.2-3.4-1.5c-1.2-0.4-2.2-0.6-3.1-0.6c-0.8,0-1.4,0.1-1.9,0.4c-0.5,0.3-0.7,0.7-0.7,1.3
			C82,141.5,82.3,142.1,83,142.5z"/>
		<path class="st1" d="M99.2,152.3c0.8,0.2,1.5,0.3,2.3,0.3c1.7,0,3-0.5,3.9-1.6c0.9-1.1,1.3-2.6,1.2-4.6c-1.1,1.7-2.8,2.5-5.1,2.5
			c-2,0-3.6-0.6-4.8-1.8c-1.2-1.2-1.8-2.8-1.8-4.9c0-1.4,0.3-2.7,0.9-3.7c0.6-1.1,1.5-1.9,2.6-2.4c1.1-0.6,2.4-0.9,3.9-0.9
			c1.8,0,3.3,0.4,4.6,1.2c1.3,0.8,2.3,2,3,3.5c0.7,1.5,1,3.3,1,5.4c0,2.2-0.4,4.1-1.1,5.7c-0.7,1.7-1.8,2.9-3.2,3.8
			c-1.4,0.9-3,1.3-4.9,1.3c-1.1,0-2.2-0.2-3.4-0.5s-2.2-0.7-3-1.2l1.7-3.3C97.8,151.7,98.4,152.1,99.2,152.3z M100.1,139.9
			c-0.6,0.6-0.9,1.4-0.9,2.4c0,1,0.3,1.8,0.9,2.3c0.6,0.6,1.4,0.9,2.4,0.9c1.1,0,2-0.3,2.6-0.9c0.6-0.6,1-1.4,1-2.3
			c0-0.9-0.3-1.6-0.9-2.3c-0.6-0.6-1.5-0.9-2.6-0.9C101.5,139,100.7,139.3,100.1,139.9z"/>
		<path class="st1" d="M129.6,138c1.6,1.8,2.3,4.4,2.3,7.8c0,3.4-0.8,5.9-2.3,7.8c-1.6,1.8-3.8,2.7-6.7,2.7c-2.9,0-5.1-0.9-6.7-2.7
			c-1.6-1.8-2.3-4.4-2.3-7.8c0-3.4,0.8-6,2.3-7.8c1.6-1.8,3.8-2.7,6.7-2.7C125.8,135.3,128,136.2,129.6,138z M119.7,140.5
			c-0.7,1.1-1,2.9-1,5.3c0,2.4,0.3,4.2,1,5.3s1.8,1.7,3.2,1.7c1.4,0,2.5-0.6,3.2-1.7s1-2.9,1-5.3c0-2.4-0.3-4.2-1-5.3
			c-0.7-1.1-1.7-1.6-3.2-1.6C121.5,138.8,120.4,139.4,119.7,140.5z"/>
		<path class="st1" d="M146,156.1l-3.8-6.5l-2,2.2v4.3h-4.5v-21.9h4.5v12l5.8-6h5.2l-5.8,6.1l6.1,9.7H146z"/>
	</g>
</g>
</svg>
