
<svg width="124px" height="124px" viewBox="78 -2 124 124" version="1.1" xmlns="http://www.w3.org/2000/svg" xmlns:xlink="http://www.w3.org/1999/xlink">
    <!-- Generator: Sketch 42 (36781) - http://www.bohemiancoding.com/sketch -->
    <desc>Created with Sketch.</desc>
    <defs></defs>
    <g id="Group-2" stroke="none" stroke-width="1" fill="none" fill-rule="evenodd" transform="translate(80.000000, 0.000000)">
        <g id="thin-0394_business_handshake_deal_contract_sign">
            <rect id="Rectangle-path" x="15.3854609" y="16.6846957" width="87.6521739" height="87.6521739"></rect>
            <ellipse id="Oval" stroke="#F34C4C" stroke-width="3" cx="60" cy="60" rx="60" ry="60"></ellipse>
        </g>
        <g id="thin-0307_chat_discussion_yes_no_pro_contra_conversation" transform="translate(32.000000, 32.000000)">
            <g id="Group" transform="translate(0.000000, 5.666667)" stroke="#F34C4C" stroke-width="3">
                <path d="M22.372,30.9179 C24.0317,35.2233667 27.9048,38.2413 32.4163,38.2413 L35.8934333,38.2413 L45.3737667,46.6550667 L45.3737667,38.0523 C50.4828333,37.0538667 54.3629333,32.1398667 54.3629333,26.2253333 C54.3629333,19.5888667 49.4795,14.2091333 43.4555333,14.2091333 L40.5820333,14.2091333" id="Shape"></path>
                <path d="M36.4928667,24.8913667 L42.4242,30.8675" id="Shape"></path>
                <path d="M33.5132,30.8675 L42.4242,21.8890667" id="Shape"></path>
                <path d="M10.5044333,25.6882 C5.05446667,24.6225667 0.915366667,19.3784 0.915366667,13.0660333 C0.915366667,5.98343333 6.12476667,0.242033333 12.5507667,0.242033333 L24.3268667,0.242033333 C30.7528667,0.242033333 35.9625,5.98343333 35.9625,13.0660333 C35.9625,20.1481667 30.7528667,25.8898 24.3268667,25.8898 L20.6175667,25.8898 L10.5044333,34.8694 L10.5044333,25.6882 L10.5044333,25.6882 Z" id="Shape"></path>
                <path d="M15.799,18.3265333 L25.0264,8.3842" id="Shape"></path>
                <path d="M17.799,18.3265333 L13.5140667,13.7093333" id="Shape"></path>
            </g>
            <rect id="Rectangle-path" x="0" y="0" width="56" height="56"></rect>
        </g>
    </g>
</svg>