<?xml version="1.0" encoding="utf-8"?>
<!-- Generator: Adobe Illustrator 21.0.2, SVG Export Plug-In . SVG Version: 6.00 Build 0)  -->
<svg version="1.1" id="Layer_1" xmlns="http://www.w3.org/2000/svg" xmlns:xlink="http://www.w3.org/1999/xlink" x="0px" y="0px"
	 viewBox="0 0 91.8 91.8" style="enable-background:new 0 0 91.8 91.8;" xml:space="preserve">
<style type="text/css">
	.st0{fill:#F38888;}
	.st1{fill:#EE3B3B;}
	.st2{fill:#FFFFFF;}
	.st3{fill:#F16262;}
	.st4{fill:none;stroke:#EE3B3B;stroke-width:2;stroke-linejoin:round;}
	.st5{fill:none;stroke:#EE3B3B;stroke-width:2;stroke-linejoin:round;stroke-dasharray:8.1365,8.1365;}
	.st6{fill:none;stroke:#EE3B3B;stroke-width:2;}
	.st7{fill:none;stroke:#EE3B3B;stroke-width:2;stroke-dasharray:7.5339,7.5339;}
	.st8{fill:none;stroke:#EE3B3B;stroke-width:2;stroke-dasharray:7.8832,7.8832;}
	.st9{fill:none;stroke:#EE3B3B;stroke-width:2;stroke-dasharray:9.0769,9.0769;}
	.st10{fill:none;stroke:#EE3B3B;stroke-width:2;stroke-dasharray:8.2443,8.2443;}
	.st11{fill:none;stroke:#EE3B3B;stroke-width:2;stroke-dasharray:7.196,7.196;}
	.st12{fill:none;stroke:#EE3B3B;stroke-width:2;stroke-dasharray:8,8;}
	.st13{fill:none;stroke:#EE3B3B;stroke-width:2;stroke-dasharray:8.1423,8.1423;}
	.st14{fill:none;stroke:#EE3B3B;stroke-width:3;stroke-dasharray:8,8;}
	.st15{fill:#FFFFFF;stroke:#EE3B3B;stroke-width:3;stroke-dasharray:8,8;}
	.st16{fill:none;stroke:#FFFFFF;stroke-width:2.7;}
	.st17{fill:#F7A4A6;}
	.st18{fill:#424143;}
	.st19{opacity:0.24;fill:#A01D21;}
	.st20{opacity:0.24;fill:#231F20;}
	.st21{fill:#EF3D3B;}
</style>
<g>
	<g>
		<path class="st21" d="M62.4,54.3c-0.3,13.2-10.8,24.2-24.2,24.2C25,78.5,14,67.5,14,54.3c0-13.2,11-24.2,24.2-24.2
			C51.7,30.1,62.1,41.1,62.4,54.3c0.1,2.3,3.7,2.3,3.6,0c-0.3-11.6-7.2-22.1-18.3-26.1c-11-4-23.7-0.5-31.1,8.5
			c-7.3,8.9-8.3,21.7-2.5,31.6c5.9,10,17.7,15.4,29.2,13.3C56.6,79.2,65.7,67.5,66,54.3C66.1,52,62.5,52,62.4,54.3z"/>
	</g>
	<g>
		<path class="st21" d="M23.3,49.1c4.5,4.4,9.1,8.9,13.6,13.3c0.7,0.7,1.9,0.7,2.6,0C53.3,47.6,67,32.7,80.8,17.9
			c1.6-1.7-1-4.3-2.6-2.6C64.5,30.2,50.7,45,37,59.8c0.9,0,1.7,0,2.6,0C35,55.4,30.4,51,25.9,46.5C24.2,44.9,21.7,47.4,23.3,49.1
			L23.3,49.1z"/>
	</g>
</g>
</svg>
