<?xml version="1.0" encoding="utf-8"?>
<!-- Generator: Adobe Illustrator 21.0.2, SVG Export Plug-In . SVG Version: 6.00 Build 0)  -->
<svg version="1.1" xmlns="http://www.w3.org/2000/svg" xmlns:xlink="http://www.w3.org/1999/xlink" x="0px" y="0px"
	 viewBox="0 0 589.3 500" style="enable-background:new 0 0 589.3 500;" xml:space="preserve">
<style type="text/css">
	.st0{fill:#FFFFFF;}
	.st1{fill:#ED3A3A;}
	.st2{fill:#414042;}
	.st3{fill:#808080;}
	.st4{fill:#EFF0F0;}
	.st5{fill:#231F20;}
	.st6{fill:none;stroke:#FFFFFF;stroke-width:2;stroke-miterlimit:10;}
	.st7{opacity:0.86;fill:url(#SVGID_3_);}
	.st8{opacity:0.24;fill:#A01717;}
	.st9{opacity:0.24;fill:#414042;}
	.st10{opacity:0.24;fill:#231F20;}
	.st11{fill:#ED3A3A;stroke:#FFFFFF;stroke-width:4;stroke-miterlimit:10;}
	.st12{fill:#808083;stroke:#FFFFFF;stroke-width:4;stroke-miterlimit:10;}
	.st13{fill:none;stroke:#231F20;stroke-width:2;stroke-miterlimit:10;}
	.st14{fill:#FFFFFF;stroke:#231F20;stroke-width:4;stroke-miterlimit:10;}
	.st15{fill:url(#SVGID_4_);}
	.st16{fill:url(#SVGID_5_);}
	.st17{clip-path:url(#SVGID_7_);}
	.st18{clip-path:url(#SVGID_9_);fill:#F04C4C;}
	.st19{clip-path:url(#SVGID_11_);}
	.st20{clip-path:url(#SVGID_13_);fill:#FFFFFF;}
	.st21{clip-path:url(#SVGID_15_);}
	.st22{clip-path:url(#SVGID_17_);fill:#F04C4C;}
	.st23{clip-path:url(#SVGID_19_);}
	.st24{clip-path:url(#SVGID_21_);fill:#FFFFFF;}
	.st25{clip-path:url(#SVGID_23_);}
	.st26{clip-path:url(#SVGID_25_);fill:#F04C4C;}
	.st27{clip-path:url(#SVGID_27_);}
	.st28{clip-path:url(#SVGID_29_);fill:#FFFFFF;}
	.st29{clip-path:url(#SVGID_31_);}
	.st30{clip-path:url(#SVGID_33_);fill:#FFFFFF;}
	.st31{clip-path:url(#SVGID_35_);}
	.st32{clip-path:url(#SVGID_37_);fill:#F04C4C;}
	.st33{clip-path:url(#SVGID_39_);}
	.st34{clip-path:url(#SVGID_41_);fill:#FFFFFF;}
	.st35{clip-path:url(#SVGID_43_);}
	.st36{clip-path:url(#SVGID_45_);fill:#F04C4C;}
	.st37{clip-path:url(#SVGID_47_);}
	.st38{clip-path:url(#SVGID_49_);fill:#FFFFFF;}
	.st39{clip-path:url(#SVGID_51_);}
	.st40{clip-path:url(#SVGID_53_);fill:#FF7270;}
	.st41{clip-path:url(#SVGID_55_);}
	.st42{clip-path:url(#SVGID_57_);fill:#F53D3D;}
	.st43{clip-path:url(#SVGID_59_);}
	.st44{clip-path:url(#SVGID_61_);fill:#E13A3A;}
	.st45{clip-path:url(#SVGID_63_);}
	.st46{clip-path:url(#SVGID_65_);fill:#B21109;}
	.st47{clip-path:url(#SVGID_67_);}
	.st48{clip-path:url(#SVGID_69_);fill:#F53D3D;}
	.st49{clip-path:url(#SVGID_71_);}
	.st50{clip-path:url(#SVGID_73_);fill:#E60404;}
	.st51{clip-path:url(#SVGID_75_);}
	.st52{clip-path:url(#SVGID_77_);fill:#FFFFFF;}
	.st53{clip-path:url(#SVGID_79_);}
	.st54{clip-path:url(#SVGID_81_);fill:#F53D3D;}
	.st55{opacity:0.35;fill:#414042;}
	.st56{opacity:0.35;fill:#ED3A3A;}
	.st57{opacity:0.35;fill:#A5A7AA;}
	.st58{opacity:0.13;}
	.st59{opacity:0.29;}
	.st60{clip-path:url(#SVGID_85_);}
	.st61{clip-path:url(#SVGID_87_);fill:#FF7270;}
	.st62{clip-path:url(#SVGID_89_);}
	.st63{clip-path:url(#SVGID_91_);fill:#F53D3D;}
	.st64{clip-path:url(#SVGID_93_);}
	.st65{clip-path:url(#SVGID_95_);fill:#E13A3A;}
	.st66{clip-path:url(#SVGID_97_);}
	.st67{clip-path:url(#SVGID_99_);fill:#B21109;}
	.st68{clip-path:url(#SVGID_101_);}
	.st69{clip-path:url(#SVGID_103_);fill:#F53D3D;}
	.st70{clip-path:url(#SVGID_105_);}
	.st71{clip-path:url(#SVGID_107_);fill:#E60404;}
	.st72{clip-path:url(#SVGID_109_);}
	.st73{clip-path:url(#SVGID_111_);fill:#FFFFFF;}
	.st74{clip-path:url(#SVGID_113_);}
	.st75{clip-path:url(#SVGID_115_);fill:#F53D3D;}
	.st76{fill:#F5655E;}
	.st77{fill:url(#SVGID_116_);}
	.st78{fill:none;stroke:#ED3A3A;stroke-width:4;stroke-miterlimit:10;}
	.st79{opacity:0.2;}
</style>
<g id="Style_Details">
</g>
<g id="Layer_1">
	<g>
		<path class="st55" d="M554.3,263.4c0,30.8-12.5,58.6-32.6,78.8c-20.2,20.2-48,32.6-78.8,32.6v60.3l-61.3-60.3H263.8
			c-61.6,0-111.5-49.9-111.5-111.5c0-30.8,12.5-58.7,32.6-78.8s48-32.6,78.8-32.6h179.1C504.4,151.9,554.3,201.8,554.3,263.4z"/>
		<path class="st56" d="M378.1,128.1c0,24.4-9.9,46.4-25.8,62.4c-16,16-38,25.8-62.4,25.8V264l-48.5-47.7h-93.2
			c-48.7,0-88.2-39.5-88.2-88.2c0-24.4,9.9-46.4,25.8-62.4s38-25.8,62.4-25.8h141.7C338.6,39.8,378.1,79.3,378.1,128.1z"/>
		<path class="st57" d="M293.2,349.8c0,19.8-8,37.7-21,50.6c-13,13-30.9,21-50.6,21v38.7l-39.4-38.7h-75.7
			c-39.5,0-71.6-32.1-71.6-71.6c0-19.8,8-37.7,21-50.6c13-13,30.9-21,50.6-21h115C261.1,278.2,293.2,310.3,293.2,349.8z"/>
	</g>
</g>
</svg>
