<?xml version="1.0" encoding="utf-8"?>
<!-- Generator: Adobe Illustrator 21.0.2, SVG Export Plug-In . SVG Version: 6.00 Build 0)  -->
<svg version="1.1" xmlns="http://www.w3.org/2000/svg" xmlns:xlink="http://www.w3.org/1999/xlink" x="0px" y="0px"
	 viewBox="0 0 500 500" style="enable-background:new 0 0 500 500;" xml:space="preserve">
<style type="text/css">
	.st0{fill:#FFFFFF;}
	.st1{fill:#ED3A3A;}
	.st2{fill:#414042;}
	.st3{fill:#808080;}
	.st4{fill:#EFF0F0;}
	.st5{fill:#231F20;}
	.st6{fill:none;stroke:#FFFFFF;stroke-width:2;stroke-miterlimit:10;}
	.st7{opacity:0.86;fill:url(#SVGID_3_);}
	.st8{opacity:0.24;fill:#A01717;}
	.st9{opacity:0.24;fill:#414042;}
	.st10{opacity:0.24;fill:#231F20;}
	.st11{fill:#ED3A3A;stroke:#FFFFFF;stroke-width:4;stroke-miterlimit:10;}
	.st12{fill:#808083;stroke:#FFFFFF;stroke-width:4;stroke-miterlimit:10;}
	.st13{fill:none;stroke:#231F20;stroke-width:2;stroke-miterlimit:10;}
	.st14{fill:#FFFFFF;stroke:#231F20;stroke-width:4;stroke-miterlimit:10;}
	.st15{fill:url(#SVGID_4_);}
	.st16{fill:url(#SVGID_5_);}
	.st17{clip-path:url(#SVGID_7_);}
	.st18{clip-path:url(#SVGID_9_);fill:#F04C4C;}
	.st19{clip-path:url(#SVGID_11_);}
	.st20{clip-path:url(#SVGID_13_);fill:#FFFFFF;}
	.st21{clip-path:url(#SVGID_15_);}
	.st22{clip-path:url(#SVGID_17_);fill:#F04C4C;}
	.st23{clip-path:url(#SVGID_19_);}
	.st24{clip-path:url(#SVGID_21_);fill:#FFFFFF;}
	.st25{clip-path:url(#SVGID_23_);}
	.st26{clip-path:url(#SVGID_25_);fill:#F04C4C;}
	.st27{clip-path:url(#SVGID_27_);}
	.st28{clip-path:url(#SVGID_29_);fill:#FFFFFF;}
	.st29{clip-path:url(#SVGID_31_);}
	.st30{clip-path:url(#SVGID_33_);fill:#FFFFFF;}
	.st31{clip-path:url(#SVGID_35_);}
	.st32{clip-path:url(#SVGID_37_);fill:#F04C4C;}
	.st33{clip-path:url(#SVGID_39_);}
	.st34{clip-path:url(#SVGID_41_);fill:#FFFFFF;}
	.st35{clip-path:url(#SVGID_43_);}
	.st36{clip-path:url(#SVGID_45_);fill:#F04C4C;}
	.st37{clip-path:url(#SVGID_47_);}
	.st38{clip-path:url(#SVGID_49_);fill:#FFFFFF;}
	.st39{clip-path:url(#SVGID_51_);}
	.st40{clip-path:url(#SVGID_53_);fill:#FF7270;}
	.st41{clip-path:url(#SVGID_55_);}
	.st42{clip-path:url(#SVGID_57_);fill:#F53D3D;}
	.st43{clip-path:url(#SVGID_59_);}
	.st44{clip-path:url(#SVGID_61_);fill:#E13A3A;}
	.st45{clip-path:url(#SVGID_63_);}
	.st46{clip-path:url(#SVGID_65_);fill:#B21109;}
	.st47{clip-path:url(#SVGID_67_);}
	.st48{clip-path:url(#SVGID_69_);fill:#F53D3D;}
	.st49{clip-path:url(#SVGID_71_);}
	.st50{clip-path:url(#SVGID_73_);fill:#E60404;}
	.st51{clip-path:url(#SVGID_75_);}
	.st52{clip-path:url(#SVGID_77_);fill:#FFFFFF;}
	.st53{clip-path:url(#SVGID_79_);}
	.st54{clip-path:url(#SVGID_81_);fill:#F53D3D;}
	.st55{opacity:0.35;fill:#414042;}
	.st56{opacity:0.35;fill:#ED3A3A;}
	.st57{opacity:0.35;fill:#A5A7AA;}
	.st58{opacity:0.13;}
	.st59{opacity:0.29;}
	.st60{clip-path:url(#SVGID_85_);}
	.st61{clip-path:url(#SVGID_87_);fill:#FF7270;}
	.st62{clip-path:url(#SVGID_89_);}
	.st63{clip-path:url(#SVGID_91_);fill:#F53D3D;}
	.st64{clip-path:url(#SVGID_93_);}
	.st65{clip-path:url(#SVGID_95_);fill:#E13A3A;}
	.st66{clip-path:url(#SVGID_97_);}
	.st67{clip-path:url(#SVGID_99_);fill:#B21109;}
	.st68{clip-path:url(#SVGID_101_);}
	.st69{clip-path:url(#SVGID_103_);fill:#F53D3D;}
	.st70{clip-path:url(#SVGID_105_);}
	.st71{clip-path:url(#SVGID_107_);fill:#E60404;}
	.st72{clip-path:url(#SVGID_109_);}
	.st73{clip-path:url(#SVGID_111_);fill:#FFFFFF;}
	.st74{clip-path:url(#SVGID_113_);}
	.st75{clip-path:url(#SVGID_115_);fill:#F53D3D;}
	.st76{fill:#F5655E;}
	.st77{fill:url(#SVGID_116_);}
	.st78{fill:none;stroke:#ED3A3A;stroke-width:4;stroke-miterlimit:10;}
	.st79{opacity:0.2;}
</style>
<g id="Style_Details">
</g>
<g id="Layer_1">
	<g>
		<g>
			<path class="st1" d="M250,335.5c-47.1,0-85.5-38.4-85.5-85.5s38.4-85.5,85.5-85.5s85.5,38.4,85.5,85.5S297.1,335.5,250,335.5z
				 M250,168.7c-44.8,0-81.3,36.5-81.3,81.3s36.5,81.3,81.3,81.3s81.3-36.5,81.3-81.3S294.8,168.7,250,168.7z"/>
		</g>
		<g>
			<path class="st1" d="M261.9,255.2c-0.7,0-1.3-0.3-1.9-0.8c-0.1-0.1-0.4-0.3-0.6-0.4c-0.7-0.4-1.6-0.9-2.4-2.1
				c-0.1-0.2-0.3-0.4-0.4-0.6c-0.7,0.1-1.7,0.1-2.4-0.7c-0.3-0.3-0.7-1-0.6-1.9c-0.2,0-0.3,0-0.5,0.1c-0.7,0.7-1.6,1.1-2.5,1.1
				c-1,0-2-0.4-2.8-1.1l-0.2-0.2c-0.1,0-0.1,0.1-0.1,0.1c-1.2,0.9-2.7,1.5-4.8-0.5c-0.9-0.9-1.6-1.1-1.8-1.1c0,0-0.1,0-0.2,0
				c-0.8,0.2-2.1,0.4-3.2-0.5c-0.6-0.4-0.9-1.1-1-1.8c-0.1-0.1-0.4-0.2-0.5-0.3l-0.7-0.3l-0.4-0.7c-0.4-0.7-1.7-3.1-1.1-5.1
				c0.1-0.5,0.2-0.7,0.2-1c0-0.3,0-0.7,0.1-1.3c0-0.1,0-0.1,0-0.3c-0.1-0.9-0.1-1.9,1-3.1c0.9-1.1,1.2-1.6,1.3-1.7
				c-0.1-2.9,1.8-4,2.9-4.4c0.8-0.3,2.1-1.1,2.6-1.5c0.8-1.9,4.2-2,4.2-2c0.5,0,1.3-0.2,1.6-0.3c0.9-0.8,2.1-0.9,2.6-0.9
				c1.1-0.1,2.1,0.3,2.7,0.9c0.5-0.3,1.2-0.5,1.9-0.6c1,0,2,0.3,2.6,0.9c0.2,0.2,0.4,0.5,0.5,0.7c1.2-0.2,2.1,0.2,2.6,0.4
				c0.1,0,0.2,0.1,0.3,0.1c0.8,0.3,1.3,0.8,1.6,1.2c0.9-0.1,1.9,0.3,3,1.8c0.1,0.1,0.1,0.1,0.2,0.2c0.3,0.3,0.5,0.7,0.7,1
				c1.8,0.2,2.8,1.6,3,3.1c0.1,0.2,0.4,0.4,0.6,0.6c0.8,0.7,1.9,2.6,1.9,4.1c0,0.5-0.1,0.9-0.2,1.2c1,1.4,1.3,3.4,0.1,4.8
				c0.6,1.2,0.2,2.5-1.2,4c-0.1,0.1-0.1,0.6,0,0.9c0,0.1,0,0.2,0,0.3c0.1,0.5,0.3,1.7-0.5,2.7c-0.5,0.7-1.3,1-2.4,1.1
				c-1.5,0.1-2.1,0.6-2.2,0.8c-0.2,0.2-0.4,0.5-0.6,0.8c-0.7,1-1.5,2.1-2.9,2.3C262,255.2,261.9,255.2,261.9,255.2z M262.9,251.4
				C262.9,251.4,262.9,251.4,262.9,251.4C262.9,251.4,262.9,251.4,262.9,251.4z M258.4,247c1,0.4,1.4,1.2,1.7,1.7
				c0.1,0.2,0.3,0.5,0.5,0.9c0.2,0.3,0.4,0.4,0.9,0.7c0.1,0,0.1,0.1,0.2,0.1c0.3-0.4,0.6-0.8,0.9-1.2c1-1.1,2.4-1.9,4-2.1
				c0-1,0-2.4,1.1-3.6c0,0,0,0,0.1-0.1c-0.4-0.8-0.5-2,0.7-3.5c-1.3-1.3-0.9-2.8-0.7-3.4c0-0.1,0-0.1,0-0.2c-0.1-0.3-0.5-1-0.7-1.3
				c-0.6-0.6-1.5-1.4-1.7-2.5c-1.8-0.2-2.5-1.7-2.7-2.2c0,0,0-0.1,0-0.1c-0.1-0.1-0.2-0.3-0.3-0.4c-0.8,0.1-1.9-0.2-2.9-1.6
				c0,0-0.1-0.1-0.1-0.1c-0.1,0-0.2-0.1-0.3-0.1c-0.2-0.1-0.4-0.2-0.5-0.2c-1.1,0.6-2,0.4-2.5,0.2c-0.8-0.3-1.2-0.9-1.5-1.4
				c-0.4,0.2-0.9,0.3-1.4,0.4c-1.2,0-2.2-0.5-2.9-1.1c0,0,0,0,0,0c-1.4,1.2-4.1,1.3-4.1,1.3c-0.2,0-0.6,0.1-0.9,0.2
				c-1.3,1.8-4.7,3.1-4.7,3.1c0,0-0.1,0.1-0.1,0.4c0,1.3-0.6,2.6-2.3,4.5c0,0.4,0.1,0.8,0,1.4c-0.1,0.3-0.1,0.5-0.1,0.6
				c0,0.5,0,1-0.3,2c0,0.2,0.2,0.8,0.4,1.3c0.8,0.4,1.7,1.1,2.1,2c0.2,0,0.4-0.1,0.5-0.1c1.4-0.1,3.1,0.7,4.6,2.1
				c0.1-0.1,0.2-0.2,0.4-0.2c2.5-1.5,4,0.1,4.7,0.8c1.2-1,2.9-1,4.4-1c0.2,0,0.5,0,0.6,0c1.4,0,2,0.5,2.4,1
				C258.3,246,258.4,246.5,258.4,247z M253.4,248.4C253.4,248.4,253.4,248.4,253.4,248.4C253.4,248.4,253.4,248.4,253.4,248.4z
				 M271.3,241.4C271.3,241.4,271.3,241.4,271.3,241.4C271.3,241.4,271.3,241.4,271.3,241.4z M267.8,236.3L267.8,236.3
				C267.8,236.3,267.8,236.3,267.8,236.3L267.8,236.3z M269.5,231.9C269.5,231.9,269.5,231.9,269.5,231.9
				C269.5,231.9,269.5,231.9,269.5,231.9z M262.6,230.2L262.6,230.2L262.6,230.2z M265.8,228.5L265.8,228.5L265.8,228.5z
				 M259.6,228.3C259.6,228.3,259.6,228.3,259.6,228.3C259.6,228.3,259.6,228.3,259.6,228.3z M245.8,226c0,0.3,0,0.5-0.1,0.8
				C245.7,226.5,245.8,226.3,245.8,226z M250.1,225.7C250.1,225.7,250.1,225.7,250.1,225.7C250.1,225.7,250.1,225.7,250.1,225.7z
				 M250.6,225.7C250.6,225.7,250.6,225.7,250.6,225.7C250.6,225.7,250.6,225.7,250.6,225.7z M254.2,225.6L254.2,225.6L254.2,225.6z
				"/>
		</g>
		<g>
			<path class="st1" d="M242.1,286.6l-0.8-2.2c-0.6-1.5-0.6-3-0.6-4.4c0-2,0-3.5-1.7-5.3c-0.3-0.4-0.6-0.7-0.9-1
				c-0.2-0.3-0.5-0.6-0.6-0.7c-0.2-0.1-0.8-0.1-3.2,0.2c-2.4,0.4-4.9-0.3-6.6-1.8c-1.5-1.3-2.4-3.2-2.4-5.2c0-1.1,0-1.6-0.1-1.8
				c-1.2-1.3-1.3-2.5-1-3.6c-0.7-0.7-1.1-1.6-1.1-2.7c0-0.3,0.1-0.6,0.3-1.8c0,0,0-0.1,0-0.1c-1.4-0.1-3.3-0.4-4.2-2.5
				c-1-2.6,1-4.7,1.8-5.4c2.3-2.3,3.7-8.8,4-11.6c1-12.5,10.9-20.9,25.2-21.3c16.7-0.5,27.1,8.8,28.4,17.8c1.7,11.6,1,13.2-3.4,20.7
				l-0.4,0.8c-2.2,3.7-6.8,11.5-5.5,21.9l0.2,1.8L242.1,286.6z M237,268.8c2,0,3,0.6,4.3,2.2c0.2,0.3,0.4,0.5,0.7,0.9
				c2.8,3.1,2.8,6,2.8,8.2c0,0.5,0,0.9,0,1.4l20.2-6c-0.8-10.9,3.9-18.9,6.2-22.8l0.4-0.7c3.9-6.8,4.4-7.5,2.8-18
				c-1.4-9.3-13.4-14.6-24.2-14.2c-9.6,0.3-20.1,5.1-21.1,17.5c0,0.2-1.1,10.1-5.2,14.1c-0.4,0.4-0.6,0.6-0.7,0.8c0.3,0,0.6,0,0.8,0
				c0.7,0,1.4,0,2.2,0.2l1.8,0.4l-0.2,1.9c-0.1,0.6-0.3,1.7-0.5,2.7c-0.1,0.3-0.1,0.6-0.2,0.8c0,0,0,0,0.1,0l2.7,0.7l-1.5,2.4
				c-0.1,0.1-0.2,0.3-0.3,0.5c1,1,1.1,2,1.1,4.6c0,0.9,0.3,1.5,0.9,2.1c0.8,0.7,2.1,1,3.2,0.8C235.1,268.9,236.1,268.8,237,268.8z"
				/>
		</g>
	</g>
</g>
</svg>
