<?xml version="1.0" encoding="utf-8"?>
<!-- Generator: Adobe Illustrator 21.0.2, SVG Export Plug-In . SVG Version: 6.00 Build 0)  -->
<svg version="1.1" id="Layer_1" xmlns="http://www.w3.org/2000/svg" xmlns:xlink="http://www.w3.org/1999/xlink" x="0px" y="0px"
	 viewBox="0 0 71.3 71.3" style="enable-background:new 0 0 71.3 71.3;" xml:space="preserve">
<style type="text/css">
	.st0{fill:#F38888;}
	.st1{fill:#EE3B3B;}
	.st2{fill:#FFFFFF;}
	.st3{fill:#F16262;}
	.st4{fill:none;stroke:#EE3B3B;stroke-width:2;stroke-linejoin:round;}
	.st5{fill:none;stroke:#EE3B3B;stroke-width:2;stroke-linejoin:round;stroke-dasharray:8.1365,8.1365;}
	.st6{fill:none;stroke:#EE3B3B;stroke-width:2;}
	.st7{fill:none;stroke:#EE3B3B;stroke-width:2;stroke-dasharray:7.5339,7.5339;}
	.st8{fill:none;stroke:#EE3B3B;stroke-width:2;stroke-dasharray:7.8832,7.8832;}
	.st9{fill:none;stroke:#EE3B3B;stroke-width:2;stroke-dasharray:9.0769,9.0769;}
	.st10{fill:none;stroke:#EE3B3B;stroke-width:2;stroke-dasharray:8.2443,8.2443;}
	.st11{fill:none;stroke:#EE3B3B;stroke-width:2;stroke-dasharray:7.196,7.196;}
	.st12{fill:none;stroke:#EE3B3B;stroke-width:2;stroke-dasharray:8,8;}
	.st13{fill:none;stroke:#EE3B3B;stroke-width:2;stroke-dasharray:8.1423,8.1423;}
	.st14{fill:none;stroke:#EE3B3B;stroke-width:3;stroke-dasharray:8,8;}
	.st15{fill:#FFFFFF;stroke:#EE3B3B;stroke-width:3;stroke-dasharray:8,8;}
	.st16{fill:none;stroke:#FFFFFF;stroke-width:2.7;}
	.st17{fill:#F7A4A6;}
	.st18{fill:#424143;}
	.st19{opacity:0.24;fill:#A01D21;}
	.st20{opacity:0.24;fill:#231F20;}
</style>
<g id="Welcome">
	<g id="Desktop" transform="translate(-423.000000, -739.000000)">
		<g id="hero" transform="translate(0.000000, 96.000000)">
			<g id="Retirement-plan" transform="translate(72.000000, 363.000000)">
				<g id="costs-of-living" transform="translate(307.000000, 118.000000)">
					<g id="Group-3-Copy" transform="translate(36.000000, 127.000000)">
						<g id="Group-8" transform="translate(0.000000, 30.000000)">
							<path id="Shape" class="st1" d="M40.9,39l-1.7,1l1.3,11.8c0.1,1.1-0.5,2.1-1.4,2.7c-0.9,0.6-2.1,0.6-3.1,0
								c-0.9-0.6-1.5-1.6-1.4-2.7L36,39.9l-1.7-1c-0.8-0.5-1.3-1.3-1.3-2.2l0.3-9.4c0-0.4,0.4-0.8,0.8-0.8l0,0
								c0.4,0,0.8,0.3,0.8,0.8l0.2,6.2c0,0.3,0.3,0.6,0.6,0.7c0.2,0,0.4,0,0.5-0.2s0.2-0.3,0.2-0.5l0.2-6.2c0-0.4,0.4-0.8,0.8-0.8
								c0.5,0,0.8,0.4,0.8,0.8l0.2,6.2c0,0.2,0.1,0.3,0.2,0.5c0.1,0.1,0.3,0.2,0.5,0.2c0.3,0,0.6-0.3,0.6-0.7l0.2-6.2
								c0-0.4,0.4-0.8,0.8-0.8l0,0c0.4,0,0.8,0.3,0.8,0.8l0.3,9.4C42.2,37.6,41.7,38.5,40.9,39L40.9,39z M54.2,33.7
								c0-4-2.1-7.2-4.6-7.2S45,29.7,45,33.7c0,3,1.2,5.6,2.9,6.7l-1.2,11.4c-0.1,1.1,0.5,2.1,1.4,2.7c0.9,0.6,2.1,0.6,3.1,0
								c0.9-0.6,1.5-1.6,1.4-2.7l-1.2-11.4C53,39.3,54.2,36.7,54.2,33.7z"/>
						</g>
					</g>
				</g>
			</g>
		</g>
	</g>
</g>
</svg>
