<?xml version="1.0" encoding="utf-8"?>
<!-- Generator: Adobe Illustrator 21.0.2, SVG Export Plug-In . SVG Version: 6.00 Build 0)  -->
<svg version="1.1" xmlns="http://www.w3.org/2000/svg" xmlns:xlink="http://www.w3.org/1999/xlink" x="0px" y="0px"
	 viewBox="220 220 60 60" style="enable-background:new 0 0 500 500;" xml:space="preserve">
<style type="text/css">
	.st0{fill:#FFFFFF;}
	.st1{fill:#ED3A3A;}
	.st2{fill:#414042;}
	.st3{fill:#808080;}
	.st4{fill:#EFF0F0;}
	.st5{fill:#231F20;}
	.st6{fill:none;stroke:#FFFFFF;stroke-width:2;stroke-miterlimit:10;}
	.st7{opacity:0.86;fill:url(#SVGID_3_);}
	.st8{opacity:0.24;fill:#A01717;}
	.st9{opacity:0.24;fill:#414042;}
	.st10{opacity:0.24;fill:#231F20;}
	.st11{fill:#ED3A3A;stroke:#FFFFFF;stroke-width:4;stroke-miterlimit:10;}
	.st12{fill:#808083;stroke:#FFFFFF;stroke-width:4;stroke-miterlimit:10;}
	.st13{fill:none;stroke:#231F20;stroke-width:2;stroke-miterlimit:10;}
	.st14{fill:#FFFFFF;stroke:#231F20;stroke-width:4;stroke-miterlimit:10;}
	.st15{fill:url(#SVGID_4_);}
	.st16{fill:url(#SVGID_5_);}
	.st17{clip-path:url(#SVGID_7_);}
	.st18{clip-path:url(#SVGID_9_);fill:#F04C4C;}
	.st19{clip-path:url(#SVGID_11_);}
	.st20{clip-path:url(#SVGID_13_);fill:#FFFFFF;}
	.st21{clip-path:url(#SVGID_15_);}
	.st22{clip-path:url(#SVGID_17_);fill:#F04C4C;}
	.st23{clip-path:url(#SVGID_19_);}
	.st24{clip-path:url(#SVGID_21_);fill:#FFFFFF;}
	.st25{clip-path:url(#SVGID_23_);}
	.st26{clip-path:url(#SVGID_25_);fill:#F04C4C;}
	.st27{clip-path:url(#SVGID_27_);}
	.st28{clip-path:url(#SVGID_29_);fill:#FFFFFF;}
	.st29{clip-path:url(#SVGID_31_);}
	.st30{clip-path:url(#SVGID_33_);fill:#FFFFFF;}
	.st31{clip-path:url(#SVGID_35_);}
	.st32{clip-path:url(#SVGID_37_);fill:#F04C4C;}
	.st33{clip-path:url(#SVGID_39_);}
	.st34{clip-path:url(#SVGID_41_);fill:#FFFFFF;}
	.st35{clip-path:url(#SVGID_43_);}
	.st36{clip-path:url(#SVGID_45_);fill:#F04C4C;}
	.st37{clip-path:url(#SVGID_47_);}
	.st38{clip-path:url(#SVGID_49_);fill:#FFFFFF;}
	.st39{clip-path:url(#SVGID_51_);}
	.st40{clip-path:url(#SVGID_53_);fill:#FF7270;}
	.st41{clip-path:url(#SVGID_55_);}
	.st42{clip-path:url(#SVGID_57_);fill:#F53D3D;}
	.st43{clip-path:url(#SVGID_59_);}
	.st44{clip-path:url(#SVGID_61_);fill:#E13A3A;}
	.st45{clip-path:url(#SVGID_63_);}
	.st46{clip-path:url(#SVGID_65_);fill:#B21109;}
	.st47{clip-path:url(#SVGID_67_);}
	.st48{clip-path:url(#SVGID_69_);fill:#F53D3D;}
	.st49{clip-path:url(#SVGID_71_);}
	.st50{clip-path:url(#SVGID_73_);fill:#E60404;}
	.st51{clip-path:url(#SVGID_75_);}
	.st52{clip-path:url(#SVGID_77_);fill:#FFFFFF;}
	.st53{clip-path:url(#SVGID_79_);}
	.st54{clip-path:url(#SVGID_81_);fill:#F53D3D;}
	.st55{opacity:0.35;fill:#414042;}
	.st56{opacity:0.35;fill:#ED3A3A;}
	.st57{opacity:0.35;fill:#A5A7AA;}
	.st58{opacity:0.13;}
	.st59{opacity:0.29;}
	.st60{clip-path:url(#SVGID_85_);}
	.st61{clip-path:url(#SVGID_87_);fill:#FF7270;}
	.st62{clip-path:url(#SVGID_89_);}
	.st63{clip-path:url(#SVGID_91_);fill:#F53D3D;}
	.st64{clip-path:url(#SVGID_93_);}
	.st65{clip-path:url(#SVGID_95_);fill:#E13A3A;}
	.st66{clip-path:url(#SVGID_97_);}
	.st67{clip-path:url(#SVGID_99_);fill:#B21109;}
	.st68{clip-path:url(#SVGID_101_);}
	.st69{clip-path:url(#SVGID_103_);fill:#F53D3D;}
	.st70{clip-path:url(#SVGID_105_);}
	.st71{clip-path:url(#SVGID_107_);fill:#E60404;}
	.st72{clip-path:url(#SVGID_109_);}
	.st73{clip-path:url(#SVGID_111_);fill:#FFFFFF;}
	.st74{clip-path:url(#SVGID_113_);}
	.st75{clip-path:url(#SVGID_115_);fill:#F53D3D;}
	.st76{fill:#F5655E;}
	.st77{fill:url(#SVGID_116_);}
	.st78{fill:none;stroke:#ED3A3A;stroke-width:4;stroke-miterlimit:10;}
	.st79{opacity:0.2;}
	.st80{clip-path:url(#SVGID_118_);}
	.st81{clip-path:url(#SVGID_120_);fill:#F04C4C;}
	.st82{clip-path:url(#SVGID_122_);}
	.st83{clip-path:url(#SVGID_124_);fill:#FFFFFF;}
	.st84{clip-path:url(#SVGID_126_);}
	.st85{clip-path:url(#SVGID_128_);fill:#FFFFFF;}
	.st86{clip-path:url(#SVGID_130_);}
	.st87{clip-path:url(#SVGID_132_);fill:#F04C4C;}
	.st88{clip-path:url(#SVGID_134_);}
	.st89{clip-path:url(#SVGID_136_);fill:#FFFFFF;}
	.st90{clip-path:url(#SVGID_138_);}
	.st91{clip-path:url(#SVGID_140_);fill:#F04C4C;}
	.st92{clip-path:url(#SVGID_142_);}
	.st93{clip-path:url(#SVGID_144_);fill:#FFFFFF;}
</style>
<g id="Style_Details">
</g>
<g id="Layer_1">
	<g>
		<g>
			<defs>
				<circle id="SVGID_117_" cx="250" cy="250" r="26.1"/>
			</defs>
			<clipPath id="SVGID_2_">
				<use xlink:href="#SVGID_117_"  style="overflow:visible;"/>
			</clipPath>
			<g style="clip-path:url(#SVGID_2_);">
				<defs>
					<rect id="SVGID_119_" x="-1390.7" y="-4776.7" width="1880.6" height="5145.5"/>
				</defs>
				<clipPath id="SVGID_3_">
					<use xlink:href="#SVGID_119_"  style="overflow:visible;"/>
				</clipPath>
				<rect x="217.4" y="217.4" style="clip-path:url(#SVGID_3_);fill:#F04C4C;" width="65.3" height="65.3"/>
			</g>
		</g>
		<g>
			<defs>
				<path id="SVGID_121_" d="M235.4,250c-0.2-4.8,4-9.2,8.8-9.3c2.4-0.2,4.8,0.7,6.7,2.3c-0.8,0.8-1.5,1.7-2.4,2.4
					c-1.6-1-3.6-1.7-5.5-1.1c-3.1,0.9-4.9,4.5-3.8,7.5c0.9,3.1,4.8,4.9,7.7,3.5c1.5-0.6,2.6-2,3-3.5c-1.8,0-3.6,0-5.3-0.1
					c0-1.1,0-2.1,0-3.2c3,0,5.9,0,8.9,0c0.2,2.6-0.2,5.4-1.9,7.4c-2.3,3-6.6,3.8-10,2.7C238,257.6,235.3,253.9,235.4,250"/>
			</defs>
			<clipPath id="SVGID_4_">
				<use xlink:href="#SVGID_121_"  style="overflow:visible;"/>
			</clipPath>
			<g style="clip-path:url(#SVGID_4_);">
				<defs>
					<rect id="SVGID_123_" x="-1390.7" y="-4776.7" width="1880.6" height="5145.5"/>
				</defs>
				<clipPath id="SVGID_5_">
					<use xlink:href="#SVGID_123_"  style="overflow:visible;"/>
				</clipPath>
				<rect x="228.8" y="234.2" style="clip-path:url(#SVGID_5_);fill:#FFFFFF;" width="31.3" height="31.7"/>
			</g>
		</g>
		<g>
			<defs>
				<path id="SVGID_125_" d="M259.3,246h2.6c0,0.9,0,1.8,0,2.7c0.9,0,1.8,0,2.7,0v2.6c-0.9,0-1.8,0-2.7,0c0,0.9,0,1.8,0,2.7
					c-0.9,0-1.8,0-2.6,0c0-0.9,0-1.8,0-2.7c-0.9,0-1.8,0-2.7,0v-2.6c0.9,0,1.8,0,2.7,0C259.3,247.8,259.3,246.9,259.3,246"/>
			</defs>
			<clipPath id="SVGID_7_">
				<use xlink:href="#SVGID_125_"  style="overflow:visible;"/>
			</clipPath>
			<g class="st17">
				<defs>
					<rect id="SVGID_127_" x="-1390.7" y="-4776.7" width="1880.6" height="5145.5"/>
				</defs>
				<clipPath id="SVGID_9_">
					<use xlink:href="#SVGID_127_"  style="overflow:visible;"/>
				</clipPath>
				<rect x="250.1" y="239.5" style="clip-path:url(#SVGID_9_);fill:#FFFFFF;" width="21" height="21"/>
			</g>
		</g>
	</g>
	<g>
		<g>
			<defs>
				<circle id="SVGID_129_" cx="287.3" cy="664.8" r="26.1"/>
			</defs>
			<clipPath id="SVGID_11_">
				<use xlink:href="#SVGID_129_"  style="overflow:visible;"/>
			</clipPath>
			<g class="st19">
				<defs>
					<rect id="SVGID_131_" x="-1501.4" y="-4361.9" width="1880.6" height="5145.5"/>
				</defs>
				<clipPath id="SVGID_13_">
					<use xlink:href="#SVGID_131_"  style="overflow:visible;"/>
				</clipPath>
			</g>
		</g>
		<g>
			<defs>
				<path id="SVGID_133_" d="M298.6,659.8c0,6.6-3.7,11.5-9.1,11.5c-1.8,0-3.5-1-4.1-2.1c0,0-1,3.9-1.2,4.6c-0.7,2.6-2.9,5.3-3,5.5
					c-0.1,0.1-0.4,0.1-0.4-0.1c0-0.3-0.6-3.7,0.1-6.4c0.3-1.4,2.2-9.2,2.2-9.2s-0.5-1.1-0.5-2.7c0-2.5,1.4-4.4,3.2-4.4
					c1.5,0,2.3,1.1,2.3,2.5c0,1.5-1,3.8-1.5,6c-0.4,1.8,0.9,3.2,2.7,3.2c3.2,0,5.3-4.1,5.3-8.9c0-3.7-2.5-6.4-7-6.4
					c-5.1,0-8.3,3.8-8.3,8c0,1.5,0.4,2.5,1.1,3.3c0.3,0.4,0.4,0.5,0.2,0.9c-0.1,0.3-0.3,1.1-0.3,1.3c-0.1,0.4-0.5,0.6-0.8,0.4
					c-2.3-1-3.4-3.5-3.4-6.4c0-4.8,4-10.5,12-10.5C294.4,650.2,298.6,654.8,298.6,659.8z"/>
			</defs>
			<clipPath id="SVGID_15_">
				<use xlink:href="#SVGID_133_"  style="overflow:visible;"/>
			</clipPath>
			<g class="st21">
				<defs>
					<rect id="SVGID_135_" x="-1501.4" y="-4361.9" width="1880.6" height="5145.5"/>
				</defs>
				<clipPath id="SVGID_17_">
					<use xlink:href="#SVGID_135_"  style="overflow:visible;"/>
				</clipPath>
			</g>
		</g>
	</g>
	<g>
		<g>
			<defs>
				<circle id="SVGID_137_" cx="213.3" cy="664.8" r="26.1"/>
			</defs>
			<clipPath id="SVGID_19_">
				<use xlink:href="#SVGID_137_"  style="overflow:visible;"/>
			</clipPath>
			<g class="st23">
				<defs>
					<rect id="SVGID_139_" x="-1501.4" y="-4361.9" width="1880.6" height="5145.5"/>
				</defs>
				<clipPath id="SVGID_21_">
					<use xlink:href="#SVGID_139_"  style="overflow:visible;"/>
				</clipPath>
			</g>
		</g>
		<g>
			<defs>
				<path id="SVGID_141_" d="M210.3,668.4l7.9-4.1l-7.9-4.1V668.4z M227.9,670.7c0,2.3-1.9,4.2-4.2,4.2h-20.9
					c-2.3,0-4.2-1.9-4.2-4.2V659c0-2.3,1.9-4.2,4.2-4.2h20.9c2.3,0,4.2,1.9,4.2,4.2V670.7z"/>
			</defs>
			<clipPath id="SVGID_23_">
				<use xlink:href="#SVGID_141_"  style="overflow:visible;"/>
			</clipPath>
			<g class="st25">
				<defs>
					<rect id="SVGID_143_" x="-1501.4" y="-4361.9" width="1880.6" height="5145.5"/>
				</defs>
				<clipPath id="SVGID_25_">
					<use xlink:href="#SVGID_143_"  style="overflow:visible;"/>
				</clipPath>
			</g>
		</g>
	</g>
</g>
</svg>
