<?xml version="1.0" encoding="utf-8"?>
<!-- Generator: Adobe Illustrator 21.0.2, SVG Export Plug-In . SVG Version: 6.00 Build 0)  -->
<svg version="1.1" id="Layer_1" xmlns="http://www.w3.org/2000/svg" xmlns:xlink="http://www.w3.org/1999/xlink" x="0px" y="0px"
	 viewBox="0 0 71.3 71.3" style="enable-background:new 0 0 71.3 71.3;" xml:space="preserve">
<style type="text/css">
	.st0{fill:#F38888;}
	.st1{fill:#EE3B3B;}
	.st2{fill:#FFFFFF;}
	.st3{fill:#F16262;}
	.st4{fill:none;stroke:#EE3B3B;stroke-width:2;stroke-linejoin:round;}
	.st5{fill:none;stroke:#EE3B3B;stroke-width:2;stroke-linejoin:round;stroke-dasharray:8.1365,8.1365;}
	.st6{fill:none;stroke:#EE3B3B;stroke-width:2;}
	.st7{fill:none;stroke:#EE3B3B;stroke-width:2;stroke-dasharray:7.5339,7.5339;}
	.st8{fill:none;stroke:#EE3B3B;stroke-width:2;stroke-dasharray:7.8832,7.8832;}
	.st9{fill:none;stroke:#EE3B3B;stroke-width:2;stroke-dasharray:9.0769,9.0769;}
	.st10{fill:none;stroke:#EE3B3B;stroke-width:2;stroke-dasharray:8.2443,8.2443;}
	.st11{fill:none;stroke:#EE3B3B;stroke-width:2;stroke-dasharray:7.196,7.196;}
	.st12{fill:none;stroke:#EE3B3B;stroke-width:2;stroke-dasharray:8,8;}
	.st13{fill:none;stroke:#EE3B3B;stroke-width:2;stroke-dasharray:8.1423,8.1423;}
	.st14{fill:none;stroke:#EE3B3B;stroke-width:3;stroke-dasharray:8,8;}
	.st15{fill:#FFFFFF;stroke:#EE3B3B;stroke-width:3;stroke-dasharray:8,8;}
	.st16{fill:none;stroke:#FFFFFF;stroke-width:2.7;}
	.st17{fill:#F7A4A6;}
	.st18{fill:#424143;}
	.st19{opacity:0.24;fill:#A01D21;}
	.st20{opacity:0.24;fill:#231F20;}
</style>
<g id="Welcome_1_">
	<g id="Desktop_1_" transform="translate(-421.000000, -960.000000)">
		<g id="hero_1_" transform="translate(0.000000, 96.000000)">
			<g id="Retirement-plan_1_" transform="translate(72.000000, 363.000000)">
				<g id="costs-of-living_1_" transform="translate(307.000000, 118.000000)">
					<g id="Group-4" transform="translate(36.000000, 345.000000)">
						<g id="Group-6" transform="translate(0.000000, 30.000000)">
							<path id="Shape_1_" class="st1" d="M32.3,35.5c-2.2,2.4-2.2,6.2,0,8.5l8.8,9.3c0.1,0.1,0.3,0.2,0.5,0.2
								c0.2,0,0.4-0.1,0.5-0.2c2.9-3.1,5.9-6.2,8.8-9.3c2.2-2.4,2.2-6.2,0-8.5c-2.2-2.4-5.9-2.4-8.2,0l-1.1,1.2l-1.1-1.2
								c-1.1-1.2-2.6-1.8-4.1-1.8C34.9,33.7,33.4,34.3,32.3,35.5z"/>
						</g>
					</g>
				</g>
			</g>
		</g>
	</g>
</g>
</svg>
