<?xml version="1.0" encoding="utf-8"?>
<!-- Generator: Adobe Illustrator 21.0.2, SVG Export Plug-In . SVG Version: 6.00 Build 0)  -->
<svg version="1.1" id="Layer_1" xmlns="http://www.w3.org/2000/svg" xmlns:xlink="http://www.w3.org/1999/xlink" x="0px" y="0px"
	 viewBox="0 0 71.3 71.3" style="enable-background:new 0 0 71.3 71.3;" xml:space="preserve">
<style type="text/css">
	.st0{fill:#F38888;}
	.st1{fill:#EE3B3B;}
	.st2{fill:#FFFFFF;}
	.st3{fill:#F16262;}
	.st4{fill:none;stroke:#EE3B3B;stroke-width:2;stroke-linejoin:round;}
	.st5{fill:none;stroke:#EE3B3B;stroke-width:2;stroke-linejoin:round;stroke-dasharray:8.1365,8.1365;}
	.st6{fill:none;stroke:#EE3B3B;stroke-width:2;}
	.st7{fill:none;stroke:#EE3B3B;stroke-width:2;stroke-dasharray:7.5339,7.5339;}
	.st8{fill:none;stroke:#EE3B3B;stroke-width:2;stroke-dasharray:7.8832,7.8832;}
	.st9{fill:none;stroke:#EE3B3B;stroke-width:2;stroke-dasharray:9.0769,9.0769;}
	.st10{fill:none;stroke:#EE3B3B;stroke-width:2;stroke-dasharray:8.2443,8.2443;}
	.st11{fill:none;stroke:#EE3B3B;stroke-width:2;stroke-dasharray:7.196,7.196;}
	.st12{fill:none;stroke:#EE3B3B;stroke-width:2;stroke-dasharray:8,8;}
	.st13{fill:none;stroke:#EE3B3B;stroke-width:2;stroke-dasharray:8.1423,8.1423;}
	.st14{fill:none;stroke:#EE3B3B;stroke-width:3;stroke-dasharray:8,8;}
	.st15{fill:#FFFFFF;stroke:#EE3B3B;stroke-width:3;stroke-dasharray:8,8;}
	.st16{fill:none;stroke:#FFFFFF;stroke-width:2.7;}
	.st17{fill:#F7A4A6;}
	.st18{fill:#424143;}
	.st19{opacity:0.24;fill:#A01D21;}
	.st20{opacity:0.24;fill:#231F20;}
</style>
<g id="Welcome_4_">
	<g id="Desktop_4_" transform="translate(-420.000000, -851.000000)">
		<g id="hero_4_" transform="translate(0.000000, 96.000000)">
			<g id="Retirement-plan_4_" transform="translate(72.000000, 363.000000)">
				<g id="costs-of-living_4_" transform="translate(307.000000, 118.000000)">
					<g id="Group-3" transform="translate(36.000000, 236.000000)">
						<g id="Group-7" transform="translate(0.000000, 30.000000)">
							<path id="Shape_4_" class="st1" d="M40.8,34.7l-0.1-0.1l-0.2,0.1l0.2-0.1L40.8,34.7z M51.6,42.9L51.5,54c0,0.6-0.5,1-1.1,1
								h-6.9c-0.6,0-1.1-0.5-1.1-1v-5.9h-3.6V54c0,0.6-0.5,1-1.1,1h-6.9c-0.6,0-1.1-0.5-1.1-1V42.8l-2.2,1.7
								c-0.4,0.4-1.2,0.3-1.6-0.1c-0.4-0.4-0.1-1.2,0.2-1.5L40,32.4c0.2-0.1,0.4-0.2,0.7-0.2c0.2,0,0.4,0.1,0.7,0.2l3.7,2.8v-2
								c0-0.6,0.5-1,1.1-1h2.9c0.6,0,1.1,0.5,1.1,1V39l5,3.8c0.5,0.3,0.5,1.1,0.2,1.5c-0.3,0.5-1.1,0.5-1.6,0.1L51.6,42.9z"/>
						</g>
					</g>
				</g>
			</g>
		</g>
	</g>
</g>
</svg>
