
<svg width="84px" height="106px" viewBox="0 0 84 106" version="1.1" xmlns="http://www.w3.org/2000/svg" xmlns:xlink="http://www.w3.org/1999/xlink">
    <!-- Generator: Sketch 45.2 (43514) - http://www.bohemiancoding.com/sketch -->
    <desc>Created with Sketch.</desc>
    <defs></defs>
    <g id="Page-1" stroke="none" stroke-width="1" fill="none" fill-rule="evenodd">
        <g id="Desktop-HD-Copy-38" transform="translate(-310.000000, -344.000000)">
            <g id="Group-3" transform="translate(310.000000, 339.000000)">
                <g id="Group-5-Copy">
                    <path d="M42,109.811051 C65.1959595,109.811051 84,91.0070107 84,67.8110512 C84,60.4590709 82.110986,53.5482934 78.7918432,47.5376038 C78.3164876,46.6767747 76.4117987,45.8344072 75.8791246,45.0118494 C68.3963305,33.4568843 56.7910553,39.8110512 42,39.8110512 C27.5588453,39.8110512 16.2199802,33.09942 8.66114132,44.1984212 C7.93683854,45.2619493 5.86009798,46.360466 5.23397942,47.4909116 C1.89881327,53.5124929 0,60.4400263 0,67.8110512 C0,91.0070107 18.8040405,109.811051 42,109.811051 Z" id="Oval-2-Copy-16" fill="#E80404"></path>
                    <path d="M26.6,59.1417968 C27.8449091,44.8290635 39.8579004,33.6 54.49358,33.6 C69.9575529,33.6 82.49358,46.136027 82.49358,61.6 C82.49358,71.4204916 77.437846,80.0601532 69.7871599,85.0582032 C69.8576144,84.2481867 69.89358,83.4282934 69.89358,82.6 C69.89358,67.136027 57.3575529,54.6 41.89358,54.6 C36.2500985,54.6 30.9965727,56.2695981 26.6,59.1417968 Z" id="Combined-Shape-Copy-55" fill="#F73D3D"></path>
                    <path d="M14.10642,85.0582032 C6.45573392,80.0601532 1.4,71.4204916 1.4,61.6 C1.4,46.136027 13.936027,33.6 29.4,33.6 C44.0356796,33.6 56.0486708,44.8290635 57.29358,59.1417968 C52.8970073,56.2695981 47.6434814,54.6 42,54.6 C26.536027,54.6 14,67.136027 14,82.6 C14,83.4282934 14.0359655,84.2481867 14.10642,85.0582032 Z" id="Combined-Shape-Copy-56" fill="#FF7270"></path>
                    <path d="M26.70642,58.8 C19.0557339,63.79805 14,72.4377117 14,82.2582032 C14,97.7221762 26.536027,110.258203 42,110.258203 C56.6356796,110.258203 68.6486708,99.0291397 69.89358,84.7164065 C65.4970073,87.5886051 60.2434814,89.2582032 54.6,89.2582032 C39.136027,89.2582032 26.6,76.7221762 26.6,61.2582032 C26.6,60.4299098 26.6359655,59.6100166 26.70642,58.8 Z" id="Combined-Shape-Copy-57" fill="#E80404"></path>
                    <path d="M14,84.7164065 C15.2449091,99.0291397 27.2579004,110.258203 41.89358,110.258203 C57.3575529,110.258203 69.89358,97.7221762 69.89358,82.2582032 C69.89358,72.4377117 64.837846,63.79805 57.1871599,58.8 C57.2576144,59.6100166 57.29358,60.4299098 57.29358,61.2582032 C57.29358,76.7221762 44.7575529,89.2582032 29.29358,89.2582032 C23.6500985,89.2582032 18.3965727,87.5886051 14,84.7164065 Z" id="Combined-Shape-Copy-58" fill="#B41109"></path>
                    <path d="M57.29358,59.1417968 C57.3640345,59.9518133 57.4,60.7717066 57.4,61.6 C57.4,72.5318599 51.1352194,82.0005019 42,86.6115841 C32.8647806,82.0005019 26.6,72.5318599 26.6,61.6 C26.6,60.7717066 26.6359655,59.9518133 26.70642,59.1417968 C31.1029927,56.2695981 36.3565186,54.6 42,54.6 C47.6434814,54.6 52.8970073,56.2695981 57.29358,59.1417968 Z" id="Combined-Shape-Copy-59" fill="#FFFFFF"></path>
                    <path d="M41.94679,54.4384205 C41.9645228,54.4383875 41.9822595,54.438371 42,54.438371 C47.6434814,54.438371 52.8970073,56.1079692 57.29358,58.9801678 C56.4323675,49.0787995 50.4178763,40.6531823 41.94679,36.4 C33.4757037,40.6531823 27.4612125,49.0787995 26.6,58.9801678 C30.9965727,56.1079692 36.2500985,54.438371 41.89358,54.438371 C41.9113205,54.438371 41.9290572,54.4383875 41.94679,54.4384205 Z" id="Combined-Shape-Copy-60" fill="#EB0000"></path>
                    <path d="M42,86.4108903 C45.88235,88.4477116 50.3015869,89.6 54.9899553,89.6 C60.570272,89.6 65.7693134,87.9675667 70.1355878,85.1541919 C70.2334096,84.2021894 70.2835352,83.23605 70.2835352,82.2582032 C70.2835352,72.4377117 65.2278013,63.79805 57.5771152,58.8 C57.6475697,59.6100166 57.6835352,60.4299098 57.6835352,61.2582032 C57.6835352,72.3027988 51.2888762,81.8538418 42,86.4108903 Z" id="Combined-Shape-Copy-61" fill="#E80404"></path>
                    <path d="M30.6491506,32.7845546 C31.4701607,32.7845546 38.0592011,27.2701607 38.0592011,17.2855142 C38.0592011,7.30086777 29.4902617,1.33384755 28.6692516,1.33384755 C27.8482415,1.33384755 21.2592011,7.30086777 21.2592011,17.2855142 C21.2592011,27.2701607 29.8281405,32.7845546 30.6491506,32.7845546 Z" id="Oval-16-Copy-5" fill="#5DA50F" transform="translate(29.659201, 17.059201) rotate(-225.000000) translate(-29.659201, -17.059201) "></path>
                </g>
            </g>
        </g>
    </g>
</svg>