
<svg width="124px" height="124px" viewBox="78 -2 124 124" version="1.1" xmlns="http://www.w3.org/2000/svg" xmlns:xlink="http://www.w3.org/1999/xlink">
    <!-- Generator: Sketch 42 (36781) - http://www.bohemiancoding.com/sketch -->
    <desc>Created with Sketch.</desc>
    <defs></defs>
    <g id="Group-2" stroke="none" stroke-width="1" fill="none" fill-rule="evenodd" transform="translate(80.000000, 0.000000)">
        <g id="thin-0394_business_handshake_deal_contract_sign">
            <rect id="Rectangle-path" x="15.3854609" y="16.6846957" width="87.6521739" height="87.6521739"></rect>
            <ellipse id="Oval" stroke="#F34C4C" stroke-width="3" cx="60" cy="60" rx="60" ry="60"></ellipse>
        </g>
    </g>
    <g id="thin-0294_phone_call_ringing" stroke="none" stroke-width="1" fill="none" fill-rule="evenodd" transform="translate(115.000000, 34.000000)">
        <g id="Group" transform="translate(1.000000, 1.297619)" stroke="#F34C4C" stroke-width="3">
            <path d="M31.3341667,30.0647917 C30.955,29.6810417 30.34125,29.6697917 29.9422917,30.039375 C29.9422917,30.039375 27.094375,32.82625 26.9058333,33.000625 C26.8591667,33.046875 26.8077083,33.0833333 26.7491667,33.1129167 C23.7875,34.6129167 13.0975,23.168125 15.136875,21.0160417 L18.1841667,18.03 C18.5789583,17.6414583 18.580625,17.0066667 18.1979167,16.6195833 L8.22458333,6.44979167 C8.04,6.260625 7.78645833,6.153125 7.52208333,6.15104167 C7.25666667,6.14895833 7.00416667,6.25333333 6.81375,6.43770833 C1.81958333,11.3404167 -6.18645833,16.2708333 12.5170833,35.3477083 C30.9760417,54.1725 36.2679167,47.038125 41.3627083,41.5591667 C41.72875,41.1672917 41.71875,40.5579167 41.345,40.1766667 L31.3341667,30.0647917 L31.3341667,30.0647917 Z" id="Shape"></path>
            <path d="M39.9972917,22.6289583 C40.2664583,14.4391667 33.6070833,7.793125 25.4302083,8.061875" id="Shape"></path>
            <path d="M47.05875,22.6289583 C47.3233333,10.546875 37.524375,0.735416667 25.4302083,1.00041667" id="Shape"></path>
            <path d="M25.4302083,15.1235417 C29.7020833,14.8425 33.2166667,18.3597917 32.935625,22.6289583" id="Shape"></path>
        </g>
        <rect id="Rectangle-path" x="0" y="0.293452381" width="50" height="50"></rect>
    </g>
</svg>