<?xml version="1.0" encoding="utf-8"?>
<!-- Generator: Adobe Illustrator 21.1.0, SVG Export Plug-In . SVG Version: 6.00 Build 0)  -->
<svg version="1.1" id="Layer_1" xmlns="http://www.w3.org/2000/svg" xmlns:xlink="http://www.w3.org/1999/xlink" x="0px" y="0px"
	 viewBox="0 0 125 125" enable-background="new 0 0 125 125" xml:space="preserve">
<g>
	<circle fill="none" stroke="#F04E4D" stroke-width="5" stroke-miterlimit="10" cx="62.5" cy="62.5" r="60"/>
	<path fill="none" stroke="#F04E4D" stroke-width="3" stroke-miterlimit="10" d="M69.8,67.9c-0.4-0.4-1-0.4-1.4,0c0,0-2.8,2.8-3,3
		c0,0-0.1,0.1-0.2,0.1c-3,1.5-13.7-9.9-11.6-12.1l3-3c0.4-0.4,0.4-1,0-1.4l-10-10.2c-0.2-0.2-0.4-0.3-0.7-0.3
		c-0.3,0-0.5,0.1-0.7,0.3c-5,4.9-13,9.8,5.7,28.9C69.5,92,74.8,84.8,79.9,79.4c0.4-0.4,0.4-1,0-1.4L69.8,67.9z"/>
	<path fill="none" stroke="#F04E4D" stroke-width="3" stroke-miterlimit="10" d="M78.5,60.4c0.3-8.2-6.4-14.8-14.6-14.6"/>
	<path fill="none" stroke="#F04E4D" stroke-width="3" stroke-miterlimit="10" d="M85.6,60.4c0.3-12.1-9.5-21.9-21.6-21.6"/>
	<path fill="none" stroke="#F04E4D" stroke-width="3" stroke-miterlimit="10" d="M63.9,52.9c4.3-0.3,7.8,3.2,7.5,7.5"/>
</g>
</svg>
