<?xml version="1.0" encoding="utf-8"?>
<!-- Generator: Adobe Illustrator 21.0.2, SVG Export Plug-In . SVG Version: 6.00 Build 0)  -->
<svg version="1.1" id="Layer_1" xmlns="http://www.w3.org/2000/svg" xmlns:xlink="http://www.w3.org/1999/xlink" x="0px" y="0px"
	 viewBox="0 0 71.3 71.3" style="enable-background:new 0 0 71.3 71.3;" xml:space="preserve">
<style type="text/css">
	.st0{fill:#F38888;}
	.st1{fill:#EE3B3B;}
	.st2{fill:#FFFFFF;}
	.st3{fill:#F16262;}
	.st4{fill:none;stroke:#EE3B3B;stroke-width:2;stroke-linejoin:round;}
	.st5{fill:none;stroke:#EE3B3B;stroke-width:2;stroke-linejoin:round;stroke-dasharray:8.1365,8.1365;}
	.st6{fill:none;stroke:#EE3B3B;stroke-width:2;}
	.st7{fill:none;stroke:#EE3B3B;stroke-width:2;stroke-dasharray:7.5339,7.5339;}
	.st8{fill:none;stroke:#EE3B3B;stroke-width:2;stroke-dasharray:7.8832,7.8832;}
	.st9{fill:none;stroke:#EE3B3B;stroke-width:2;stroke-dasharray:9.0769,9.0769;}
	.st10{fill:none;stroke:#EE3B3B;stroke-width:2;stroke-dasharray:8.2443,8.2443;}
	.st11{fill:none;stroke:#EE3B3B;stroke-width:2;stroke-dasharray:7.196,7.196;}
	.st12{fill:none;stroke:#EE3B3B;stroke-width:2;stroke-dasharray:8,8;}
	.st13{fill:none;stroke:#EE3B3B;stroke-width:2;stroke-dasharray:8.1423,8.1423;}
	.st14{fill:none;stroke:#EE3B3B;stroke-width:3;stroke-dasharray:8,8;}
	.st15{fill:#FFFFFF;stroke:#EE3B3B;stroke-width:3;stroke-dasharray:8,8;}
	.st16{fill:none;stroke:#FFFFFF;stroke-width:2.7;}
	.st17{fill:#F7A4A6;}
	.st18{fill:#424143;}
	.st19{opacity:0.24;fill:#A01D21;}
	.st20{opacity:0.24;fill:#231F20;}
</style>
<g id="Welcome_2_">
	<g id="Desktop_2_" transform="translate(-422.000000, -1068.000000)">
		<g id="hero_2_" transform="translate(0.000000, 96.000000)">
			<g id="Retirement-plan_2_" transform="translate(72.000000, 363.000000)">
				<g id="costs-of-living_2_" transform="translate(307.000000, 118.000000)">
					<g id="Group-2" transform="translate(36.000000, 454.000000)">
						<g id="Group-5" transform="translate(0.000000, 30.000000)">
							<path id="Shape_2_" class="st1" d="M37.2,31.7l1.5,7.8h-4.1l-1.1-2.9c-0.1-0.3-0.4-0.5-0.8-0.5h-2.8c-0.4,0-0.8,0.4-0.8,0.8
								v11.6c0,0.4,0.4,0.8,0.8,0.8h2.8c0.3,0,0.7-0.2,0.8-0.5l1.1-2.9h4.1l-1.5,7.8c0,0.4,0.2,0.9,0.8,0.9h3.8
								c0.3,0,0.6-0.2,0.8-0.5l3.6-8.2H50c2.1,0,6.2-0.6,6.2-3.2s-4.1-3.2-6.2-3.2h-3.8l-3.6-8.2c-0.1-0.3-0.4-0.5-0.8-0.5H38
								C37.4,30.8,37.2,31.3,37.2,31.7z"/>
						</g>
					</g>
				</g>
			</g>
		</g>
	</g>
</g>
</svg>
