<?xml version="1.0" encoding="utf-8"?>
<!-- Generator: Adobe Illustrator 21.1.0, SVG Export Plug-In . SVG Version: 6.00 Build 0)  -->
<svg version="1.1" id="Layer_1" xmlns="http://www.w3.org/2000/svg" xmlns:xlink="http://www.w3.org/1999/xlink" x="0px" y="0px"
	 viewBox="0 0 95.7 162.2" enable-background="new 0 0 95.7 162.2" xml:space="preserve">
<g>
	<path fill="#EE3B3B" d="M13.3,12.7C22,4.2,33.8,0,48.6,0C63,0,74.4,3.4,82.9,10.1c8.5,6.7,12.7,16.4,12.7,28.9c0,5.8-1,10.9-3,15.4
		c-2,4.4-4.4,8.2-7.1,11.2c-2.8,3.1-6.5,6.7-11.2,10.8C68,81.7,63.3,86.6,60.2,91c-3.1,4.4-4.7,9.7-4.7,16.2H32.6
		c0-6.1,0.9-11.5,2.8-16.1c1.8-4.6,4-8.4,6.5-11.4c2.5-3,6-6.5,10.4-10.4c5.2-4.7,9-8.9,11.5-12.4c2.4-3.5,3.7-7.9,3.7-13.3
		c0-6-1.9-10.4-5.6-13.4c-3.7-3-9-4.5-15.7-4.5c-7,0-12.5,1.9-16.5,5.6c-4,3.7-6.1,9.3-6.4,16.6H0C0.2,33,4.6,21.2,13.3,12.7z
		 M54.9,133.7c3,3.1,4.5,7,4.5,11.7c0,4.9-1.5,8.9-4.5,12c-3,3.1-6.8,4.7-11.4,4.7c-4.4,0-8.1-1.6-11.1-4.8c-3-3.2-4.5-7.2-4.5-11.9
		c0-4.7,1.5-8.6,4.5-11.7c3-3.1,6.7-4.6,11.1-4.6C48.2,129.1,52,130.7,54.9,133.7z"/>
</g>
</svg>
