<?xml version="1.0" encoding="utf-8"?>
<!-- Generator: Adobe Illustrator 21.1.0, SVG Export Plug-In . SVG Version: 6.00 Build 0)  -->
<svg version="1.1" id="Layer_1" xmlns="http://www.w3.org/2000/svg" xmlns:xlink="http://www.w3.org/1999/xlink" x="0px" y="0px"
	 viewBox="0 0 223.4 172.8" enable-background="new 0 0 223.4 172.8" xml:space="preserve">
<g>
	<path fill="#E5E5E6" d="M24.7,44.2C41.1,24,59.5,9.2,79.7,0l6.6,13.8C70.1,23,56.4,34.5,45,48.3C33.6,62,27.9,75.9,27.9,90
		c0,2.8,0.9,4.9,2.6,6.2c1.7,1.4,4,2.1,6.7,2.1c14.9-1.6,23-2.4,24.1-2.4c7.6,0,15.8,2.8,24.7,8.3c8.9,5.5,13.3,15,13.3,28.3
		c0,11.3-3.7,20.8-11,28.6c-7.4,7.8-17.8,11.7-31.4,11.7c-15.9,0-29.3-6.2-40.4-18.5C5.5,142,0,126.4,0,107.5
		C0,85.6,8.2,64.5,24.7,44.2z M149.1,43.4C165.8,23.4,184,9,203.8,0l6.6,13.8c-16.1,9.2-29.8,20.6-41.2,34.1S152,75.2,152,89.3
		c0,2.5,0.7,4.7,2.1,6.4c1.4,1.7,3.8,2.6,7.2,2.6c14.7-1.6,22.8-2.4,24.1-2.4c8.5,0,17,3.1,25.4,9.1c8.4,6.1,12.6,15.1,12.6,27.1
		c0,9.4-3.3,18.6-9.8,27.4c-6.6,8.9-17.5,13.3-32.9,13.3c-16.6,0-30.1-6.4-40.7-19.2c-10.6-12.8-15.9-27.2-15.9-43.4
		C124.1,85.6,132.4,63.3,149.1,43.4z"/>
</g>
</svg>
