<?xml version="1.0" encoding="utf-8"?>
<!-- Generator: Adobe Illustrator 21.0.2, SVG Export Plug-In . SVG Version: 6.00 Build 0)  -->
<svg version="1.1" xmlns="http://www.w3.org/2000/svg" xmlns:xlink="http://www.w3.org/1999/xlink" x="0px" y="0px"
	 viewBox="240 240 20 20" style="enable-background:new 0 0 500 500;" xml:space="preserve">
<style type="text/css">
	.st0{opacity:5.000000e-02;fill:#FFFFFF;}
	.st1{fill:#FFFFFF;}
	.st2{fill:#ED3A3A;}
	.st3{fill:#414042;}
	.st4{fill:#808080;}
	.st5{fill:#535354;}
	.st6{opacity:0.78;fill:#ED3A3A;}
	.st7{fill:#EFF0F0;}
	.st8{clip-path:url(#SVGID_6_);}
	.st9{clip-path:url(#SVGID_8_);fill:#F04C4C;}
	.st10{clip-path:url(#SVGID_10_);}
	.st11{clip-path:url(#SVGID_12_);fill:#FFFFFF;}
	.st12{clip-path:url(#SVGID_14_);}
	.st13{clip-path:url(#SVGID_16_);fill:#F04C4C;}
	.st14{clip-path:url(#SVGID_18_);}
	.st15{clip-path:url(#SVGID_20_);fill:#FFFFFF;}
	.st16{clip-path:url(#SVGID_22_);}
	.st17{clip-path:url(#SVGID_24_);fill:#F04C4C;}
	.st18{clip-path:url(#SVGID_26_);}
	.st19{clip-path:url(#SVGID_28_);fill:#FFFFFF;}
	.st20{clip-path:url(#SVGID_30_);}
	.st21{clip-path:url(#SVGID_32_);fill:#FFFFFF;}
	.st22{clip-path:url(#SVGID_34_);}
	.st23{clip-path:url(#SVGID_36_);fill:#F04C4C;}
	.st24{clip-path:url(#SVGID_38_);}
	.st25{clip-path:url(#SVGID_40_);fill:#FFFFFF;}
	.st26{clip-path:url(#SVGID_42_);}
	.st27{clip-path:url(#SVGID_44_);fill:#F04C4C;}
	.st28{clip-path:url(#SVGID_46_);}
	.st29{clip-path:url(#SVGID_48_);fill:#FFFFFF;}
	.st30{clip-path:url(#SVGID_50_);}
	.st31{clip-path:url(#SVGID_52_);fill:#FF7270;}
	.st32{clip-path:url(#SVGID_54_);}
	.st33{clip-path:url(#SVGID_56_);fill:#F53D3D;}
	.st34{clip-path:url(#SVGID_58_);}
	.st35{clip-path:url(#SVGID_60_);fill:#E13A3A;}
	.st36{clip-path:url(#SVGID_62_);}
	.st37{clip-path:url(#SVGID_64_);fill:#B21109;}
	.st38{clip-path:url(#SVGID_66_);}
	.st39{clip-path:url(#SVGID_68_);fill:#F53D3D;}
	.st40{clip-path:url(#SVGID_70_);}
	.st41{clip-path:url(#SVGID_72_);fill:#E60404;}
	.st42{clip-path:url(#SVGID_74_);}
	.st43{clip-path:url(#SVGID_76_);fill:#FFFFFF;}
	.st44{clip-path:url(#SVGID_78_);}
	.st45{clip-path:url(#SVGID_80_);fill:#F53D3D;}
	.st46{clip-path:url(#SVGID_82_);}
	.st47{clip-path:url(#SVGID_84_);fill:#FF7270;}
	.st48{clip-path:url(#SVGID_86_);}
	.st49{clip-path:url(#SVGID_88_);fill:#F53D3D;}
	.st50{clip-path:url(#SVGID_90_);}
	.st51{clip-path:url(#SVGID_92_);fill:#E13A3A;}
	.st52{clip-path:url(#SVGID_94_);}
	.st53{clip-path:url(#SVGID_96_);fill:#B21109;}
	.st54{clip-path:url(#SVGID_98_);}
	.st55{clip-path:url(#SVGID_100_);fill:#F53D3D;}
	.st56{clip-path:url(#SVGID_102_);}
	.st57{clip-path:url(#SVGID_104_);fill:#E60404;}
	.st58{clip-path:url(#SVGID_106_);}
	.st59{clip-path:url(#SVGID_108_);fill:#FFFFFF;}
	.st60{clip-path:url(#SVGID_110_);}
	.st61{clip-path:url(#SVGID_112_);fill:#F53D3D;}
	.st62{fill:#F5655E;}
	.st63{fill:url(#SVGID_113_);}
	.st64{opacity:0.24;fill:#A01717;}
	.st65{opacity:0.24;fill:#231F20;}
	.st66{fill:none;stroke:#535354;stroke-width:2;stroke-miterlimit:10;}
	.st67{fill:url(#SVGID_114_);}
	.st68{fill:url(#SVGID_115_);}
</style>
<g id="Style_Details">
</g>
<g id="Layer_1">
	<g>
		<g>
			<g>
				<defs>
					<circle id="SVGID_5_" cx="1747.7" cy="3729.3" r="26.1"/>
				</defs>
				<clipPath id="SVGID_2_">
					<use xlink:href="#SVGID_5_"  style="overflow:visible;"/>
				</clipPath>
				<g style="clip-path:url(#SVGID_2_);">
					<defs>
						<rect id="SVGID_7_" x="180.9" y="-1297.4" width="1880.6" height="5145.5"/>
					</defs>
					<clipPath id="SVGID_4_">
						<use xlink:href="#SVGID_7_"  style="overflow:visible;"/>
					</clipPath>
				</g>
			</g>
			<g>
				<defs>
					<path id="SVGID_9_" d="M1762.3,3720.2c-1.1,0.5-2.2,0.8-3.4,0.9c1.2-0.7,2.2-1.9,2.6-3.3c-1.2,0.7-2.4,1.2-3.8,1.5
						c-1.1-1.2-2.7-1.9-4.4-1.9c-3.3,0-6,2.7-6,6c0,0.5,0.1,0.9,0.2,1.4c-5-0.3-9.4-2.6-12.4-6.3c-0.5,0.9-0.8,1.9-0.8,3
						c0,2.1,1.1,3.9,2.7,5c-1,0-1.9-0.3-2.7-0.8c0,0,0,0,0,0.1c0,2.9,2.1,5.3,4.8,5.9c-0.5,0.1-1,0.2-1.6,0.2c-0.4,0-0.8,0-1.1-0.1
						c0.8,2.4,3,4.1,5.6,4.2c-2.1,1.6-4.6,2.6-7.5,2.6c-0.5,0-1,0-1.4-0.1c2.7,1.7,5.8,2.7,9.2,2.7c11,0,17.1-9.1,17.1-17.1
						c0-0.3,0-0.5,0-0.8C1760.5,3722.5,1761.5,3721.4,1762.3,3720.2z"/>
				</defs>
				<clipPath id="SVGID_6_">
					<use xlink:href="#SVGID_9_"  style="overflow:visible;"/>
				</clipPath>
				<g class="st8">
					<defs>
						<rect id="SVGID_11_" x="180.9" y="-1297.4" width="1880.6" height="5145.5"/>
					</defs>
					<clipPath id="SVGID_8_">
						<use xlink:href="#SVGID_11_"  style="overflow:visible;"/>
					</clipPath>
				</g>
			</g>
			<g>
				<defs>
					<circle id="SVGID_13_" cx="1673.7" cy="3729.3" r="26.1"/>
				</defs>
				<clipPath id="SVGID_10_">
					<use xlink:href="#SVGID_13_"  style="overflow:visible;"/>
				</clipPath>
				<g class="st10">
					<defs>
						<rect id="SVGID_15_" x="180.9" y="-1297.4" width="1880.6" height="5145.5"/>
					</defs>
					<clipPath id="SVGID_12_">
						<use xlink:href="#SVGID_15_"  style="overflow:visible;"/>
					</clipPath>
				</g>
			</g>
			<g>
				<defs>
					<path id="SVGID_17_" d="M1686.4,3715H1661c-0.9,0-1.6,0.7-1.6,1.6v25.4c0,0.9,0.7,1.6,1.6,1.6h13.7v-11.1h-3.7v-4.3h3.7v-3.2
						c0-3.7,2.3-5.7,5.5-5.7c1.6,0,2.9,0.1,3.3,0.2v3.9l-2.3,0c-1.8,0-2.1,0.9-2.1,2.1v2.8h4.3l-0.6,4.3h-3.7v11.1h7.3
						c0.9,0,1.6-0.7,1.6-1.6v-25.4C1687.9,3715.7,1687.2,3715,1686.4,3715z"/>
				</defs>
				<clipPath id="SVGID_14_">
					<use xlink:href="#SVGID_17_"  style="overflow:visible;"/>
				</clipPath>
				<g class="st12">
					<defs>
						<rect id="SVGID_19_" x="180.9" y="-1297.4" width="1880.6" height="5145.5"/>
					</defs>
					<clipPath id="SVGID_16_">
						<use xlink:href="#SVGID_19_"  style="overflow:visible;"/>
					</clipPath>
				</g>
			</g>
			<g>
				<defs>
					<circle id="SVGID_21_" cx="1821.7" cy="3729.3" r="26.1"/>
				</defs>
				<clipPath id="SVGID_18_">
					<use xlink:href="#SVGID_21_"  style="overflow:visible;"/>
				</clipPath>
				<g class="st14">
					<defs>
						<rect id="SVGID_23_" x="180.9" y="-1297.4" width="1880.6" height="5145.5"/>
					</defs>
					<clipPath id="SVGID_20_">
						<use xlink:href="#SVGID_23_"  style="overflow:visible;"/>
					</clipPath>
				</g>
			</g>
			<g>
				<defs>
					<path id="SVGID_25_" d="M1807.1,3729.3c-0.2-4.8,4-9.2,8.8-9.3c2.4-0.2,4.8,0.7,6.7,2.3c-0.8,0.8-1.5,1.7-2.4,2.4
						c-1.6-1-3.6-1.7-5.5-1.1c-3.1,0.9-4.9,4.5-3.8,7.5c0.9,3.1,4.8,4.9,7.7,3.5c1.5-0.6,2.6-2,3-3.5c-1.8,0-3.6,0-5.3-0.1
						c0-1.1,0-2.1,0-3.2c3,0,5.9,0,8.9,0c0.2,2.6-0.2,5.4-1.9,7.4c-2.3,3-6.6,3.8-10,2.7C1809.6,3736.9,1807,3733.2,1807.1,3729.3"
						/>
				</defs>
				<clipPath id="SVGID_22_">
					<use xlink:href="#SVGID_25_"  style="overflow:visible;"/>
				</clipPath>
				<g class="st16">
					<defs>
						<rect id="SVGID_27_" x="180.9" y="-1297.4" width="1880.6" height="5145.5"/>
					</defs>
					<clipPath id="SVGID_24_">
						<use xlink:href="#SVGID_27_"  style="overflow:visible;"/>
					</clipPath>
				</g>
			</g>
			<g>
				<defs>
					<path id="SVGID_29_" d="M1831,3725.3h2.6c0,0.9,0,1.8,0,2.7c0.9,0,1.8,0,2.7,0v2.6c-0.9,0-1.8,0-2.7,0c0,0.9,0,1.8,0,2.7
						c-0.9,0-1.8,0-2.6,0c0-0.9,0-1.8,0-2.7c-0.9,0-1.8,0-2.7,0v-2.6c0.9,0,1.8,0,2.7,0C1831,3727.1,1831,3726.2,1831,3725.3"/>
				</defs>
				<clipPath id="SVGID_26_">
					<use xlink:href="#SVGID_29_"  style="overflow:visible;"/>
				</clipPath>
				<g class="st18">
					<defs>
						<rect id="SVGID_31_" x="180.9" y="-1297.4" width="1880.6" height="5145.5"/>
					</defs>
					<clipPath id="SVGID_28_">
						<use xlink:href="#SVGID_31_"  style="overflow:visible;"/>
					</clipPath>
				</g>
			</g>
			<g>
				<defs>
					<circle id="SVGID_33_" cx="1969.7" cy="3729.3" r="26.1"/>
				</defs>
				<clipPath id="SVGID_30_">
					<use xlink:href="#SVGID_33_"  style="overflow:visible;"/>
				</clipPath>
				<g class="st20">
					<defs>
						<rect id="SVGID_35_" x="180.9" y="-1297.4" width="1880.6" height="5145.5"/>
					</defs>
					<clipPath id="SVGID_32_">
						<use xlink:href="#SVGID_35_"  style="overflow:visible;"/>
					</clipPath>
				</g>
			</g>
			<g>
				<defs>
					<path id="SVGID_37_" d="M1981,3724.3c0,6.6-3.7,11.5-9.1,11.5c-1.8,0-3.5-1-4.1-2.1c0,0-1,3.9-1.2,4.6c-0.7,2.6-2.9,5.3-3,5.5
						c-0.1,0.1-0.4,0.1-0.4-0.1c0-0.3-0.6-3.7,0.1-6.4c0.3-1.4,2.2-9.2,2.2-9.2s-0.5-1.1-0.5-2.7c0-2.5,1.4-4.4,3.2-4.4
						c1.5,0,2.3,1.1,2.3,2.5c0,1.5-1,3.8-1.5,6c-0.4,1.8,0.9,3.2,2.7,3.2c3.2,0,5.3-4.1,5.3-8.9c0-3.7-2.5-6.4-7-6.4
						c-5.1,0-8.3,3.8-8.3,8c0,1.5,0.4,2.5,1.1,3.3c0.3,0.4,0.4,0.5,0.2,0.9c-0.1,0.3-0.3,1.1-0.3,1.3c-0.1,0.4-0.5,0.6-0.8,0.4
						c-2.3-1-3.4-3.5-3.4-6.4c0-4.8,4-10.5,12-10.5C1976.8,3714.7,1981,3719.3,1981,3724.3z"/>
				</defs>
				<clipPath id="SVGID_34_">
					<use xlink:href="#SVGID_37_"  style="overflow:visible;"/>
				</clipPath>
				<g class="st22">
					<defs>
						<rect id="SVGID_39_" x="180.9" y="-1297.4" width="1880.6" height="5145.5"/>
					</defs>
					<clipPath id="SVGID_36_">
						<use xlink:href="#SVGID_39_"  style="overflow:visible;"/>
					</clipPath>
				</g>
			</g>
			<g>
				<defs>
					<circle id="SVGID_41_" cx="1895.7" cy="3729.3" r="26.1"/>
				</defs>
				<clipPath id="SVGID_38_">
					<use xlink:href="#SVGID_41_"  style="overflow:visible;"/>
				</clipPath>
				<g class="st24">
					<defs>
						<rect id="SVGID_43_" x="180.9" y="-1297.4" width="1880.6" height="5145.5"/>
					</defs>
					<clipPath id="SVGID_40_">
						<use xlink:href="#SVGID_43_"  style="overflow:visible;"/>
					</clipPath>
				</g>
			</g>
			<g>
				<defs>
					<path id="SVGID_45_" d="M1892.7,3732.9l7.9-4.1l-7.9-4.1V3732.9z M1910.3,3735.1c0,2.3-1.9,4.2-4.2,4.2h-20.9
						c-2.3,0-4.2-1.9-4.2-4.2v-11.7c0-2.3,1.9-4.2,4.2-4.2h20.9c2.3,0,4.2,1.9,4.2,4.2V3735.1z"/>
				</defs>
				<clipPath id="SVGID_42_">
					<use xlink:href="#SVGID_45_"  style="overflow:visible;"/>
				</clipPath>
				<g class="st26">
					<defs>
						<rect id="SVGID_47_" x="180.9" y="-1297.4" width="1880.6" height="5145.5"/>
					</defs>
					<clipPath id="SVGID_44_">
						<use xlink:href="#SVGID_47_"  style="overflow:visible;"/>
					</clipPath>
				</g>
			</g>
		</g>
	</g>
	<g>
		<path class="st2" d="M246.7,258.2l8.8-6.7c1-0.7,1-2.2,0-2.9l-8.8-6.7c-1.2-0.9-2.9-0.1-2.9,1.4v13.4
			C243.8,258.2,245.5,259.1,246.7,258.2z"/>
	</g>
</g>
</svg>
