<?xml version="1.0" encoding="utf-8"?>
<!-- Generator: Adobe Illustrator 21.0.2, SVG Export Plug-In . SVG Version: 6.00 Build 0)  -->
<svg version="1.1" id="Layer_1" xmlns="http://www.w3.org/2000/svg" xmlns:xlink="http://www.w3.org/1999/xlink" x="0px" y="0px"
	 viewBox="0 0 462.6 462" style="enable-background:new 0 0 462.6 462;" xml:space="preserve">
<style type="text/css">
	.st0{fill:#F38888;}
	.st1{fill:#EE3B3B;}
	.st2{fill:#FFFFFF;}
	.st3{fill:#F16262;}
	.st4{fill:none;stroke:#EE3B3B;stroke-width:2;stroke-linejoin:round;}
	.st5{fill:none;stroke:#EE3B3B;stroke-width:2;stroke-linejoin:round;stroke-dasharray:8.1365,8.1365;}
	.st6{fill:none;stroke:#EE3B3B;stroke-width:2;}
	.st7{fill:none;stroke:#EE3B3B;stroke-width:2;stroke-dasharray:7.5339,7.5339;}
	.st8{fill:none;stroke:#EE3B3B;stroke-width:2;stroke-dasharray:7.8832,7.8832;}
	.st9{fill:none;stroke:#EE3B3B;stroke-width:2;stroke-dasharray:9.0769,9.0769;}
	.st10{fill:none;stroke:#EE3B3B;stroke-width:2;stroke-dasharray:8.2443,8.2443;}
	.st11{fill:none;stroke:#EE3B3B;stroke-width:2;stroke-dasharray:7.196,7.196;}
	.st12{fill:none;stroke:#EE3B3B;stroke-width:2;stroke-dasharray:8,8;}
	.st13{fill:none;stroke:#EE3B3B;stroke-width:2;stroke-dasharray:8.1423,8.1423;}
	.st14{fill:none;stroke:#EE3B3B;stroke-width:3;stroke-dasharray:8,8;}
	.st15{fill:#FFFFFF;stroke:#EE3B3B;stroke-width:3;stroke-dasharray:8,8;}
	.st16{fill:none;stroke:#FFFFFF;stroke-width:2.7;}
	.st17{fill:#F7A4A6;}
	.st18{fill:#424143;}
	.st19{opacity:0.24;fill:#A01D21;}
	.st20{opacity:0.24;fill:#231F20;}
</style>
<g id="Illustration1" transform="translate(152.000000, 2251.000000)">
	<g id="Group-14" transform="translate(643.000000, 0.000000)">
		<g id="Group" transform="translate(119.000000, 107.000000)">
			<circle id="Oval-6" class="st0" cx="-667.7" cy="-2124.1" r="109"/>
			<path id="Shape_14_" class="st1" d="M-606.3-2177.7c0-7.2-5.8-12.8-12.8-12.8h-1.2h-84h-0.4c-7,0.2-12.6,5.8-12.6,12.8v34.6
				h-12.2c-1.7,0-3,1.3-3,3v46.2c0,1.7,1.3,3,3,3h12.2v7.8h-16.8c-1.7,0-3,1.3-3,3v2.4c0,6.8,4.8,11.8,11.2,11.8h84
				c7.2,0.2,13-5.8,13-12.8v-46.8l19.8-0.5c1.7,0,3-1.4,3-3.1L-606.3-2177.7z M-696.5-2139.9c1.7,0,3,1.3,3,3v40.2c0,1.7-1.3,3-3,3
				h-30c-1.7,0-3-1.3-3-3v-40.2c0-1.7,1.3-3,3-3H-696.5z M-632.1-2177.7v99c0,5.4-4.4,9.8-9.8,9.8c-5.4,0-9.8-4.4-9.8-9.8
				c0-0.8,0.8-4.2,0.8-4.2h-63.4v-7.6h20.8c1.7,0,3-1.3,3-3v-46.4c0-1.7-1.3-3-3-3h-20.8v-34.6c0-5.4,4.4-9.8,9.8-9.8h77
				C-630.1-2185.1-632.1-2181.7-632.1-2177.7z"/>
			<path id="Shape_13_" class="st2" d="M-727.1-2124.1h31.2v-12.8h-31.2V-2124.1z"/>
			
				<rect id="Rectangle-path" x="-721.8" y="-2110.3" transform="matrix(0.7071 -0.7071 0.7071 0.7071 1282.7789 -1120.6481)" class="st2" width="20.8" height="3"/>
			<path id="Shape_12_" class="st2" d="M-705.9-2107.7c-2.6,0-4.6,2-4.6,4.6s2,4.6,4.6,4.6c2.6,0,4.6-2,4.6-4.6
				C-701.3-2105.5-703.5-2107.7-705.9-2107.7z M-705.9-2101.5c-0.8,0-1.6-0.8-1.6-1.6s0.8-1.6,1.6-1.6s1.6,0.8,1.6,1.6
				S-705.1-2101.5-705.9-2101.5z"/>
			<path id="Shape_11_" class="st2" d="M-712.5-2114.1c0-2.6-2-4.6-4.6-4.6s-4.6,2-4.6,4.6c0,2.6,2,4.6,4.6,4.6
				S-712.5-2111.7-712.5-2114.1z M-718.5-2114.1c0-0.8,0.8-1.6,1.6-1.6s1.6,0.8,1.6,1.6s-0.8,1.6-1.6,1.6
				C-717.9-2112.5-718.5-2113.3-718.5-2114.1z"/>
			<path id="Shape_3_" class="st2" d="M-664.3-2133.7c12.6,0,23-10.4,23-23c0-12.6-10.4-23-23-23c-12.6,0-23,10.4-23,23
				C-687.3-2144.1-677.1-2133.7-664.3-2133.7z"/>
			<path id="Shape_5_" class="st1" d="M-667.7-2148.9c-0.8-0.8-1.2-1.6-1.2-2.6h-3c0,1.8,0.8,3.6,2.4,4.8c1,1,2.4,1.6,3.8,1.8v4.2h3
				v-4.2c1.4-0.2,2.8-0.8,3.8-1.8c1.4-1.2,2.4-3,2.4-4.8c0-1.8-0.8-3.6-2.4-4.8c-1.4-1.2-3.4-2-5.2-2c-1.2,0-2.4-0.4-3.4-1.2
				c-0.8-0.8-1.2-1.6-1.2-2.6s0.4-1.8,1.2-2.6c1.8-1.6,4.8-1.6,6.6,0c0.8,0.8,1.2,1.6,1.2,2.6h3c0-1.8-0.8-3.6-2.4-4.8
				c-1-1-2.4-1.4-3.8-1.8v-4.2h-3v4.2c-1.4,0.2-2.8,0.8-3.8,1.8c-1.4,1.2-2.4,3-2.4,4.8s0.8,3.6,2.4,4.8c1.4,1.2,3.4,2,5.2,2
				c1.2,0,2.4,0.4,3.4,1.2c0.8,0.8,1.2,1.6,1.2,2.6s-0.4,1.8-1.2,2.6C-662.7-2147.3-665.9-2147.3-667.7-2148.9z"/>
			<rect id="Rectangle-path_1_" x="-682.9" y="-2097.7" class="st2" width="42" height="3"/>
			<rect id="Rectangle-path_2_" x="-675.5" y="-2108.7" class="st2" width="34.6" height="3"/>
			<rect id="Rectangle-path_3_" x="-668.1" y="-2119.7" class="st2" width="27" height="3"/>
		</g>
		<path id="Shape_6_" class="st1" d="M-431.6-2119.6l-0.1-0.1l-0.2,0.1l0.2-0.1L-431.6-2119.6z M-420.6-2111.4l-0.1,11.2
			c0,0.6-0.5,1-1.1,1h-7c-0.6,0-1.1-0.5-1.1-1v-5.9h-3.7v5.9c0,0.6-0.5,1-1.1,1h-7c-0.6,0-1.1-0.5-1.1-1v-11.3l-2.3,1.7
			c-0.4,0.4-1.2,0.3-1.6-0.1c-0.4-0.4-0.1-1.2,0.2-1.5l13.9-10.5c0.2-0.1,0.4-0.2,0.7-0.2c0.2,0,0.4,0.1,0.7,0.2l3.7,2.8v-2
			c0-0.6,0.5-1,1.1-1h2.9c0.6,0,1.1,0.5,1.1,1v5.8l5.1,3.8c0.5,0.3,0.5,1.1,0.2,1.5c-0.4,0.5-1.1,0.5-1.6,0.1L-420.6-2111.4z"/>
		<path id="Shape_7_" class="st3" d="M-769.9-2083.3l1.2,6.5h-3.4l-0.9-2.4c-0.1-0.3-0.4-0.4-0.6-0.4h-2.4c-0.4,0-0.7,0.3-0.7,0.7
			v9.7c0,0.3,0.3,0.7,0.7,0.7h2.4c0.3,0,0.5-0.2,0.6-0.4l0.9-2.4h3.4l-1.2,6.5c0,0.3,0.2,0.8,0.7,0.8h3.2c0.3,0,0.5-0.2,0.6-0.4
			l3-6.9h3.2c1.8,0,5.2-0.5,5.2-2.7s-3.5-2.7-5.2-2.7h-3.2l-3-6.9c-0.1-0.2-0.4-0.4-0.6-0.4h-3.2
			C-769.7-2084.1-769.9-2083.6-769.9-2083.3z"/>
		<g id="Path-2">
			<g>
				<line class="st4" x1="-508.7" y1="-2096.7" x2="-508.7" y2="-2100.7"/>
				<path class="st5" d="M-508.7-2108.9v-57.2c0-1.7,1.3-3,3-3h74.6c1.7,0,3,1.3,3,3v17.5"/>
				<line class="st4" x1="-428.1" y1="-2144.6" x2="-428.1" y2="-2140.6"/>
			</g>
		</g>
		<path id="Shape_8_" class="st1" d="M-686.3-2229.5c-4.5,4.8-4.5,12.4,0,17.2l17.7,18.8c0.3,0.3,0.6,0.4,1,0.4c0.4,0,0.7-0.2,1-0.4
			c5.9-6.3,11.8-12.5,17.7-18.8c4.5-4.8,4.5-12.4,0-17.2c-4.5-4.8-11.9-4.8-16.3,0l-2.3,2.4l-2.3-2.4c-2.2-2.4-5.2-3.6-8.2-3.6
			C-681.1-2233.1-684.1-2231.9-686.3-2229.5z"/>
		<g id="Path-3">
			<g>
				<line class="st6" x1="-560.6" y1="-1952.1" x2="-560.5" y2="-1948.1"/>
				<line class="st7" x1="-560.5" y1="-1940.6" x2="-560.3" y2="-1929.3"/>
				<polyline class="st6" points="-560.3,-1925.5 -560.3,-1921.5 -564.3,-1921.5 				"/>
				<path class="st8" d="M-572.1-1921.5h-92.6c-1.7,0-3-1.3-3-3v-245.7"/>
				<line class="st6" x1="-667.7" y1="-2174.1" x2="-667.7" y2="-2178.1"/>
			</g>
		</g>
		<g id="Path-4">
			<g>
				<line class="st6" x1="-553.6" y1="-2096.9" x2="-553.6" y2="-2100.9"/>
				<line class="st9" x1="-553.6" y1="-2109.9" x2="-553.6" y2="-2123.5"/>
				<polyline class="st6" points="-553.6,-2128.1 -553.6,-2132.1 -557.6,-2132.1 				"/>
				<line class="st10" x1="-565.8" y1="-2132.1" x2="-759.6" y2="-2132.1"/>
				<polyline class="st6" points="-763.7,-2132.1 -767.7,-2132.1 -767.7,-2128.1 				"/>
				<line class="st11" x1="-767.7" y1="-2120.9" x2="-767.7" y2="-2110.1"/>
				<line class="st6" x1="-767.7" y1="-2106.5" x2="-767.7" y2="-2102.5"/>
			</g>
		</g>
		<path id="Shape_9_" class="st3" d="M-362-1933.5l-1.4,0.8l1.1,10c0.1,0.9-0.4,1.8-1.2,2.3s-1.8,0.5-2.6,0s-1.3-1.3-1.2-2.3l1.1-10
			l-1.4-0.8c-0.7-0.4-1.1-1.1-1.1-1.9l0.3-8c0-0.4,0.3-0.7,0.7-0.7l0,0c0.4,0,0.7,0.3,0.7,0.7l0.2,5.2c0,0.3,0.2,0.5,0.5,0.6
			c0.2,0,0.3,0,0.4-0.1c0.1-0.1,0.2-0.2,0.2-0.4l0.2-5.2c0-0.4,0.3-0.7,0.7-0.7c0.4,0,0.7,0.3,0.7,0.7l0.2,5.2
			c0,0.1,0.1,0.3,0.2,0.4s0.3,0.1,0.4,0.1c0.3,0,0.5-0.3,0.5-0.6l0.2-5.2c0-0.4,0.3-0.7,0.7-0.7l0,0c0.4,0,0.7,0.3,0.7,0.7l0.3,8
			C-360.9-1934.6-361.3-1933.9-362-1933.5L-362-1933.5z M-350.7-1938c0-3.4-1.8-6.1-3.9-6.1s-3.9,2.7-3.9,6.1c0,2.6,1,4.8,2.5,5.6
			l-1.1,9.7c-0.1,0.9,0.4,1.8,1.2,2.3s1.8,0.5,2.6,0c0.8-0.5,1.3-1.3,1.2-2.3l-1.1-9.7C-351.7-1933.2-350.7-1935.4-350.7-1938z"/>
		<path id="Path-5" class="st12" d="M-379.6-1933.1h-121.1"/>
		<g id="Group_1_" transform="translate(265.000000, 246.000000)">
			<path id="Shape_10_" class="st1" d="M-772.5-2052.9h45.6c2.8,0,4.9-2.8,3.9-5.5l-1.9-5.4c-2-3.8-5.5-6.6-9.6-7.9l-6.3-1.9
				c-1.8-0.6-2.9-2.5-2.3-4.4c0.1-0.4,0.4-0.7,0.6-1.1l4-6.3c1.7-2.6,2.3-5.8,1.8-8.9l-0.4-2.5c-0.6-3.2-2.4-6.2-5.1-8.1
				c-4.5-3.2-10.6-3.2-15,0.2l0,0c-2.3,1.8-4,4.4-4.6,7.3l-0.6,2.8c-0.8,3.3-0.1,6.7,1.6,9.6l3.8,6.1c0.3,0.3,0.5,0.6,0.6,1.1
				c0.6,1.8-0.4,3.8-2.3,4.4l-6.3,1.9c-4.2,1.3-7.6,4.1-9.6,7.9l-1.9,5.4C-777.3-2055.7-775.3-2052.9-772.5-2052.9z"/>
			<g id="Path-6">
				<g>
					<line class="st6" x1="-758.3" y1="-2232.8" x2="-754.3" y2="-2232.8"/>
					<path class="st13" d="M-746.2-2232.8h53.1c1.7,0,3,1.3,3,3v143.9c0,1.7-1.3,3-3,3h-17.4"/>
					<line class="st6" x1="-714.5" y1="-2082.9" x2="-718.5" y2="-2082.9"/>
				</g>
			</g>
		</g>
	</g>
</g>
</svg>
