<?xml version="1.0" encoding="utf-8"?>
<!-- Generator: Adobe Illustrator 21.0.2, SVG Export Plug-In . SVG Version: 6.00 Build 0)  -->
<svg version="1.1" id="Layer_1" xmlns="http://www.w3.org/2000/svg" xmlns:xlink="http://www.w3.org/1999/xlink" x="0px" y="0px"
	 viewBox="0 0 91.8 91.8" style="enable-background:new 0 0 91.8 91.8;" xml:space="preserve">
<style type="text/css">
	.st0{fill:#F38888;}
	.st1{fill:#EE3B3B;}
	.st2{fill:#FFFFFF;}
	.st3{fill:#F16262;}
	.st4{fill:none;stroke:#EE3B3B;stroke-width:2;stroke-linejoin:round;}
	.st5{fill:none;stroke:#EE3B3B;stroke-width:2;stroke-linejoin:round;stroke-dasharray:8.1365,8.1365;}
	.st6{fill:none;stroke:#EE3B3B;stroke-width:2;}
	.st7{fill:none;stroke:#EE3B3B;stroke-width:2;stroke-dasharray:7.5339,7.5339;}
	.st8{fill:none;stroke:#EE3B3B;stroke-width:2;stroke-dasharray:7.8832,7.8832;}
	.st9{fill:none;stroke:#EE3B3B;stroke-width:2;stroke-dasharray:9.0769,9.0769;}
	.st10{fill:none;stroke:#EE3B3B;stroke-width:2;stroke-dasharray:8.2443,8.2443;}
	.st11{fill:none;stroke:#EE3B3B;stroke-width:2;stroke-dasharray:7.196,7.196;}
	.st12{fill:none;stroke:#EE3B3B;stroke-width:2;stroke-dasharray:8,8;}
	.st13{fill:none;stroke:#EE3B3B;stroke-width:2;stroke-dasharray:8.1423,8.1423;}
	.st14{fill:none;stroke:#EE3B3B;stroke-width:3;stroke-dasharray:8,8;}
	.st15{fill:#FFFFFF;stroke:#EE3B3B;stroke-width:3;stroke-dasharray:8,8;}
	.st16{fill:none;stroke:#FFFFFF;stroke-width:2.7;}
	.st17{fill:#F7A4A6;}
	.st18{fill:#424143;}
	.st19{opacity:0.24;fill:#A01D21;}
	.st20{opacity:0.24;fill:#231F20;}
</style>
<g>
	<circle class="st19" cx="45.9" cy="45.9" r="26.8"/>
	<circle class="st20" cx="45.9" cy="45.9" r="35.8"/>
	<circle class="st2" cx="45.9" cy="45.9" r="21.5"/>
	<g>
		<g>
			<path class="st1" d="M35.5,43.2c3,4,6.1,8,9.1,12c0.7,1,1.9,1,2.6,0c3-4,6.1-8,9.1-12c1.2-1.5-1.4-3-2.6-1.5c-3,4-6.1,8-9.1,12
				c0.9,0,1.7,0,2.6,0c-3-4-6.1-8-9.1-12C36.9,40.2,34.3,41.7,35.5,43.2L35.5,43.2z"/>
		</g>
	</g>
</g>
</svg>
