
<svg width="124px" height="124px" viewBox="109 -2 124 124" version="1.1" xmlns="http://www.w3.org/2000/svg" xmlns:xlink="http://www.w3.org/1999/xlink">
    <!-- Generator: Sketch 42 (36781) - http://www.bohemiancoding.com/sketch -->
    <desc>Created with Sketch.</desc>
    <defs></defs>
    <g id="Group-2" stroke="none" stroke-width="1" fill="none" fill-rule="evenodd" transform="translate(111.000000, 0.000000)">
        <g id="thin-0394_business_handshake_deal_contract_sign">
            <rect id="Rectangle-path" x="15.3854609" y="16.6846957" width="87.6521739" height="87.6521739"></rect>
            <ellipse id="Oval" stroke="#F34C4C" stroke-width="3" cx="60" cy="60" rx="60" ry="60"></ellipse>
        </g>
        <g id="thin-0401_graph_growth_money_stock_inflation" transform="translate(35.000000, 34.000000)">
            <g id="Group" transform="translate(1.000000, 3.083333)" stroke="#F34C4C" stroke-width="3">
                <polyline id="Shape" points="25.9872917 5.39333333 31.2560417 0.163125 36.5247917 5.39333333"></polyline>
                <path d="M3.72291667,31.1547917 C3.72291667,31.1547917 31.255625,30.3058333 31.255625,5.18875 L31.2560417,0.163333333" id="Shape"></path>
                <circle id="Oval" cx="9.64604167" cy="11.4414583" r="9.19958333"></circle>
                <path d="M6.32833333,14.9345833 C7.22083333,15.7114583 8.59729167,16.295 9.59083333,16.295 C11.1804167,16.295 12.4691667,15.1683333 12.4691667,13.7783333 C12.4691667,12.3883333 11.093125,11.7008333 9.59083333,11.2616667 C8.03375,10.77375 6.7125,10.135 6.7125,8.745 C6.7125,7.355 8.00125,6.22833333 9.59083333,6.22833333 C10.66125,6.22833333 11.5952083,6.73916667 12.0910417,7.49729167" id="Shape"></path>
                <path d="M8.82142857,4.853125 L8.82142857,6.22833333" id="Shape"></path>
                <path d="M8.82142857,16.2947917 L8.82142857,17.6702083" id="Shape"></path>
                <rect id="Rectangle-path" x="43.8989583" y="2.125" width="4.16666667" height="43.75"></rect>
                <rect id="Rectangle-path" x="33.4816667" y="20.87625" width="4.16666667" height="24.99875"></rect>
                <rect id="Rectangle-path" x="23.064375" y="31.2935417" width="4.16666667" height="14.5814583"></rect>
                <rect id="Rectangle-path" x="12.6470833" y="37.5439583" width="4.16666667" height="8.33104167"></rect>
                <rect id="Rectangle-path" x="2.22958333" y="39.6275" width="4.16666667" height="6.24770833"></rect>
            </g>
            <rect id="Rectangle-path" x="0" y="0" width="50" height="50"></rect>
        </g>
    </g>
</svg>