<?xml version="1.0" encoding="utf-8"?>
<!-- Generator: Adobe Illustrator 21.1.0, SVG Export Plug-In . SVG Version: 6.00 Build 0)  -->
<svg version="1.1" id="Layer_1" xmlns="http://www.w3.org/2000/svg" xmlns:xlink="http://www.w3.org/1999/xlink" x="0px" y="0px"
	 viewBox="0 0 1090 441.7" enable-background="new 0 0 1052 441.7" xml:space="preserve">
<text transform="matrix(1 0 0 1 6.103516e-05 426.7763)" fill="#EE3B3B" font-family="'Montserrat-Bold'" font-size="33px">Life Insurance</text>
<text transform="matrix(1 0 0 1 401.2755 426.7763)" fill="#EE3B3B" font-family="'Montserrat-Bold'" font-size="33px">Retirement Plans</text>
<text transform="matrix(1 0 0 1 882.6107 426.7763)" fill="#EE3B3B" font-family="'Montserrat-Bold'" font-size="33px">IRA Plans</text>
<circle fill="none" stroke="#EE3B3B" stroke-width="4" stroke-miterlimit="10" cx="117.2" cy="268.8" r="88.6"/>
<circle fill="none" stroke="#EE3B3B" stroke-width="4" stroke-miterlimit="10" cx="545.8" cy="268.8" r="88.6"/>
<circle fill="none" stroke="#EE3B3B" stroke-width="4" stroke-miterlimit="10" cx="961.4" cy="268.8" r="88.6"/>
<g>
	<path fill="#EE3B3B" d="M536.4,259.2c1.3,1.4,2.8,2.6,4.7,3.4c1.9,0.8,4.4,1.7,7.6,2.7c3.8,1.1,6.8,2.2,9.1,3.3
		c2.3,1.1,4.3,2.7,5.9,4.7c1.6,2.1,2.4,4.8,2.4,8.2c0,4.1-1.5,7.5-4.6,10.2c-3.1,2.7-7.2,4.3-12.4,4.7l-0.1,10h-4.2v-9.9
		c-3.6-0.2-7.1-1.1-10.5-2.6c-3.4-1.5-6.4-3.5-8.9-5.8l2.5-4.5c2.5,2.4,5.4,4.3,8.7,5.7c3.3,1.4,6.5,2.1,9.7,2.1
		c4.2,0,7.6-0.9,10.1-2.6c2.5-1.7,3.7-4,3.7-7c0-2.3-0.6-4.2-1.9-5.7c-1.3-1.5-2.8-2.6-4.7-3.4c-1.9-0.8-4.4-1.7-7.8-2.8
		c-3.8-1.2-6.8-2.3-9.1-3.3c-2.3-1-4.2-2.6-5.8-4.6c-1.6-2-2.4-4.7-2.4-8c0-3.9,1.5-7,4.4-9.5c2.9-2.5,6.9-3.9,11.9-4.4v-9h4.2
		l0.1,9c2.8,0.1,5.5,0.6,8.3,1.5c2.8,0.9,5.2,2,7.3,3.4l-2.4,4.7c-2.3-1.4-4.8-2.5-7.5-3.3c-2.7-0.8-5.2-1.2-7.6-1.2
		c-3.8,0-6.9,0.8-9.2,2.3c-2.3,1.5-3.5,3.6-3.5,6.2C534.5,255.9,535.2,257.7,536.4,259.2z"/>
</g>
<g>
	<g>
		<g>
			<line fill="none" stroke="#EE3B3B" stroke-width="4" stroke-miterlimit="10" x1="112.1" y1="151.6" x2="112.1" y2="147.6"/>
			
				<line fill="none" stroke="#EE3B3B" stroke-width="4" stroke-miterlimit="10" stroke-dasharray="6.432,6.432" x1="112.1" y1="141.2" x2="112.1" y2="131.6"/>
			<polyline fill="none" stroke="#EE3B3B" stroke-width="4" stroke-miterlimit="10" points="112.1,128.3 112.1,124.3 116.1,123.7 
							"/>
			
				<line fill="none" stroke="#EE3B3B" stroke-width="4" stroke-miterlimit="10" stroke-dasharray="7.8695,7.8695" x1="123.8" y1="122.4" x2="539.2" y2="53.9"/>
			<line fill="none" stroke="#EE3B3B" stroke-width="4" stroke-miterlimit="10" x1="543.1" y1="53.2" x2="547.1" y2="52.6"/>
		</g>
	</g>
	<g>
		<g>
			<line fill="none" stroke="#EE3B3B" stroke-width="4" stroke-miterlimit="10" x1="966.5" y1="151.6" x2="966.5" y2="147.6"/>
			
				<line fill="none" stroke="#EE3B3B" stroke-width="4" stroke-miterlimit="10" stroke-dasharray="6.432,6.432" x1="966.5" y1="141.2" x2="966.5" y2="131.6"/>
			<polyline fill="none" stroke="#EE3B3B" stroke-width="4" stroke-miterlimit="10" points="966.5,128.3 966.5,124.3 962.6,123.7 
							"/>
			
				<line fill="none" stroke="#EE3B3B" stroke-width="4" stroke-miterlimit="10" stroke-dasharray="7.8779,7.8779" x1="954.8" y1="122.3" x2="554.9" y2="53.9"/>
			<line fill="none" stroke="#EE3B3B" stroke-width="4" stroke-miterlimit="10" x1="551" y1="53.3" x2="547.1" y2="52.6"/>
		</g>
	</g>
	
		<line fill="none" stroke="#EE3B3B" stroke-width="4" stroke-miterlimit="10" stroke-dasharray="8,8" x1="547.1" y1="0" x2="547.1" y2="151.6"/>
</g>
<g>
	<g id="Welcome_12_">
		<g id="Desktop_12_" transform="translate(-420.000000, -851.000000)">
			<g id="hero_12_" transform="translate(0.000000, 96.000000)">
				<g id="Retirement-plan_12_" transform="translate(72.000000, 363.000000)">
					<g id="costs-of-living_12_" transform="translate(307.000000, 118.000000)">
						<g id="Group-3_2_" transform="translate(36.000000, 236.000000)">
							<g id="Group-7_2_" transform="translate(0.000000, 30.000000)">
								<g id="Shape_12_">
									<path fill="#EE3B3B" d="M85.2,306.4h-3.4c-0.6,0-1-0.5-1-1v-2.4h-0.8v2.4c0,0.6-0.5,1-1,1h-3.4c-0.6,0-1-0.5-1-1v-4.6
										l-0.3,0.2c-0.2,0.2-0.5,0.2-0.8,0.2c-0.3,0-0.5-0.2-0.7-0.4c-0.4-0.4-0.2-1.1,0.2-1.4l0,0l6.8-5.2c0.2-0.1,0.4-0.2,0.6-0.2
										c0.2,0,0.4,0.1,0.6,0.2l1,0.8c0-0.5,0.5-1,1-1h1.4c0.6,0,1,0.5,1,1v2.6l2.3,1.7c0.2,0.1,0.4,0.4,0.4,0.7
										c0,0.3,0,0.6-0.2,0.8c-0.2,0.2-0.4,0.3-0.7,0.4c-0.3,0-0.6-0.1-0.8-0.2l-0.2-0.2l-0.1,4.6
										C86.2,305.9,85.7,306.4,85.2,306.4z M78.9,301.9h2.8v3.4l3.4,0l0.1-6.6l1.8,1.4c0,0,0.1,0,0.1,0c0,0,0,0,0,0l-2.7-2V295
										l-1.5,0l0,1v1l-2.6-2c0,0-0.1,0-0.1,0l-6.7,5.1c0,0,0,0,0,0.1c0,0,0,0,0,0l1.9-1.5v6.6l3.4,0L78.9,301.9z"/>
								</g>
							</g>
						</g>
					</g>
				</g>
			</g>
		</g>
	</g>
	<g>
		<path fill="#EE3B3B" stroke="#EE3B3B" stroke-width="0.25" stroke-miterlimit="10" d="M128.5,331.6H128c-8.1,0-14.7-6.6-14.7-14.7
			v-45.5c0-5.3-3.5-10.1-8.4-11.6c-0.8-0.2-1.5-0.3-2.1-0.3c-4.3,0-8.2,2-10.4,5.2c-0.9,1.4-2.5,2.2-4.1,2.2c-0.8,0-1.6-0.2-2.3-0.6
			c-0.7-0.4-1.3-0.9-1.8-1.6c-2.2-3.2-6.2-5.2-10.4-5.2c-4.6,0-8.8,2.2-10.8,5.8c-0.5,0.9-1.6,1.5-2.7,1.5c-1.7,0-3.1-1.4-3.1-3.1
			v-0.1c0.6-15.6,7.2-30.1,18.4-40.9c11.3-10.9,26.1-16.8,41.8-16.8s30.5,6,41.8,16.8c11.2,10.8,17.8,25.4,18.4,40.9v0
			c0,0.8-0.3,1.6-0.9,2.3c-0.6,0.6-1.4,1-2.3,1c-1.1,0-2.1-0.6-2.7-1.5c-2.1-3.6-6.2-5.8-10.8-5.8c-4.3,0-8.3,2-10.4,5.2
			c-0.9,1.4-2.5,2.2-4.1,2.2c-0.8,0-1.6-0.2-2.3-0.6c-0.7-0.4-1.3-0.9-1.8-1.6c-2.2-3.2-6.2-5.2-10.4-5.2c-0.6,0-1.3,0.1-2.1,0.3
			c-5,1.5-8.4,6.2-8.4,11.6v45.5c0,3.7,3,6.7,6.7,6.7h0.5c3.7,0,6.7-3,6.7-6.7c0-1.7,1-3.2,2.6-3.8c1.3-0.5,2.7-0.3,3.7,0.5
			c1.1,0.7,1.7,2,1.7,3.3C143.2,325,136.6,331.6,128.5,331.6z M102.7,258c0.8,0,1.6,0.1,2.5,0.4c5.6,1.7,9.5,7,9.5,13v45.5
			c0,7.3,5.9,13.2,13.2,13.2h0.5c7.3,0,13.2-5.9,13.2-13.2c0-0.8-0.4-1.6-1.1-2c-0.7-0.5-1.5-0.6-2.4-0.3c-0.9,0.3-1.6,1.3-1.6,2.4
			c0,4.5-3.7,8.2-8.2,8.2H128c-4.5,0-8.2-3.7-8.2-8.2v-45.5c0-6,3.9-11.3,9.5-13c0.9-0.3,1.8-0.4,2.5-0.4c4.7,0,9.2,2.2,11.7,5.8
			c0.3,0.5,0.7,0.9,1.2,1.1c0.5,0.3,1,0.4,1.6,0.4c1.1,0,2.2-0.6,2.9-1.5c2.4-3.6,6.9-5.8,11.7-5.8c5.1,0,9.8,2.5,12.1,6.6
			c0.3,0.5,0.8,0.8,1.4,0.8c0.4,0,0.9-0.2,1.2-0.5c0.3-0.3,0.5-0.7,0.4-1.2v0c-0.6-15.2-7-29.3-18-39.9
			c-11-10.6-25.5-16.4-40.7-16.4s-29.7,5.8-40.7,16.4c-11,10.6-17.3,24.7-18,39.9l0,0.1c0,0.9,0.7,1.6,1.6,1.6
			c0.6,0,1.1-0.3,1.4-0.8c2.3-4.1,7-6.6,12.1-6.6c4.7,0,9.2,2.2,11.7,5.8c0.3,0.5,0.7,0.8,1.2,1.1c0.5,0.3,1,0.4,1.6,0.4
			c1.1,0,2.2-0.6,2.8-1.5C93.5,260.2,97.9,258,102.7,258z"/>
	</g>
	<g id="Welcome_11_">
		<g id="Desktop_11_" transform="translate(-421.000000, -960.000000)">
			<g id="hero_11_" transform="translate(0.000000, 96.000000)">
				<g id="Retirement-plan_11_" transform="translate(72.000000, 363.000000)">
					<g id="costs-of-living_11_" transform="translate(307.000000, 118.000000)">
						<g id="Group-4_3_" transform="translate(36.000000, 345.000000)">
							<g id="Group-6_3_" transform="translate(0.000000, 30.000000)">
								<g id="Shape_11_">
									<path fill="#EE3B3B" d="M104.7,306.9c-0.2,0-0.5-0.1-0.7-0.3l-5.3-5.6c-1.5-1.6-1.5-4.2,0-5.8h0c0.7-0.8,1.7-1.2,2.8-1.2
										c1.1,0,2.1,0.4,2.8,1.2l0.3,0.3l0.3-0.3c0.7-0.8,1.7-1.2,2.8-1.2s2.1,0.4,2.8,1.2c1.5,1.6,1.5,4.2,0,5.8l-5.3,5.6
										C105.2,306.7,104.9,306.9,104.7,306.9z M101.6,295c-0.8,0-1.5,0.3-2.1,0.9h0c-1.1,1.2-1.1,3.2,0,4.4l5.2,5.5l5.2-5.5
										c1.1-1.2,1.1-3.2,0-4.4c-0.6-0.6-1.3-0.9-2.1-0.9s-1.5,0.3-2.1,0.9l-1,1.1l-1-1.1C103.1,295.4,102.4,295,101.6,295z"/>
								</g>
							</g>
						</g>
					</g>
				</g>
			</g>
		</g>
	</g>
	<g id="Welcome_9_">
		<g id="Desktop_9_" transform="translate(-422.000000, -1068.000000)">
			<g id="hero_9_" transform="translate(0.000000, 96.000000)">
				<g id="Retirement-plan_9_" transform="translate(72.000000, 363.000000)">
					<g id="costs-of-living_9_" transform="translate(307.000000, 118.000000)">
						<g id="Group-2_3_" transform="translate(36.000000, 454.000000)">
							<g id="Group-5_3_" transform="translate(0.000000, 30.000000)">
								<g id="Shape_9_">
									<path fill="#EE3B3B" d="M144.2,308h-2.2c-0.3,0-0.5-0.1-0.7-0.3c-0.2-0.2-0.3-0.5-0.3-0.8l0.7-4h-1.5l-0.5,1.4
										c-0.1,0.4-0.5,0.6-0.9,0.6l-1.7,0c-0.5,0-1-0.4-1-1v-6.8c0-0.5,0.4-1,1-1h1.7c0.4,0,0.8,0.3,0.9,0.7l0.5,1.4h1.5l-0.7-4
										c0-0.3,0.1-0.6,0.3-0.8c0.2-0.2,0.4-0.3,0.7-0.3h2.2c0.4,0,0.7,0.2,0.9,0.6l2,4.5h1.9c1.6,0,4.2,0.5,4.2,2.4
										s-2.6,2.4-4.2,2.4h-1.9l-2,4.5C144.9,307.8,144.6,308,144.2,308z M139.6,301.9h3.4l-1,5.2l2.2,0l2.2-5.1h2.6
										c1.3,0,3.2-0.4,3.2-1.4s-1.9-1.4-3.2-1.4h-2.6l-2.2-5.1l-2.2,0l1,5.1h-3.4l-0.8-2l-1.7,0l0,6.8l1.7,0L139.6,301.9z"/>
								</g>
							</g>
						</g>
					</g>
				</g>
			</g>
		</g>
	</g>
	<g>
		<g>
			<path fill="#EE3B3B" d="M168.7,301.3h-12.4c-0.8,0-1.4-0.4-1.9-1c-0.4-0.6-0.5-1.4-0.1-2.1c1.1-2.3,3.4-4,6.3-4.5
				c0,0-0.1-0.1-0.1-0.1c-0.1-0.1-0.2-0.3-0.3-0.5c-0.9-1.5-1.3-2.6-1.3-3.4c0-2.3,1.6-4.2,3.6-4.2c2,0,3.6,1.9,3.6,4.2
				c0,0.8-0.4,1.9-1.3,3.4c-0.1,0.2-0.2,0.3-0.3,0.5c0,0-0.1,0.1-0.1,0.1c2.9,0.5,5.3,2.3,6.3,4.6c0.3,0.7,0.2,1.4-0.2,2
				C170.1,301,169.4,301.3,168.7,301.3z M162.5,286.5c-1.4,0-2.6,1.4-2.6,3.2c0,0.4,0.2,1.3,1.1,2.9c0.1,0.1,0.1,0.2,0.2,0.3
				c0.3,0.3,0.5,0.8,0.5,1.2l0,0.4l-0.4,0.1c-2.7,0.4-5.1,1.9-6,4c-0.2,0.4-0.1,0.8,0.1,1.2c0.2,0.4,0.6,0.6,1,0.6h12.4
				c0.4,0,0.8-0.2,1-0.6c0.2-0.3,0.3-0.7,0.1-1.1c-1-2.2-3.3-3.7-6.1-4.1l-0.4-0.1l0-0.4c0-0.4,0.2-0.9,0.5-1.2
				c0.1-0.1,0.2-0.2,0.2-0.3c0.9-1.6,1.1-2.5,1.1-2.9C165.1,287.9,163.9,286.5,162.5,286.5z"/>
		</g>
	</g>
</g>
<g>
	<g>
		<path fill="#EE3B3B" d="M1001.2,321.6h-65c-1.7,0-3.1-1.4-3.1-3.1v-83c0-1.7,1.4-3.1,3.1-3.1h65c1.7,0,3.1,1.4,3.1,3.1v83
			C1004.3,320.2,1002.9,321.6,1001.2,321.6z M936.1,234c-0.8,0-1.5,0.7-1.5,1.5v83c0,0.8,0.7,1.5,1.5,1.5h65c0.8,0,1.5-0.7,1.5-1.5
			v-83c0-0.8-0.7-1.5-1.5-1.5H936.1z"/>
	</g>
	<g>
		<path fill="#EE3B3B" d="M924.6,308.8c-0.8,0-1.5-0.3-2.1-0.8c-0.6-0.6-1-1.3-1-2.1l-4.8-82.9c-0.1-1.7,1.2-3.2,2.9-3.3l64.9-3.8
			c0.8,0,1.6,0.2,2.2,0.8c0.6,0.6,1,1.3,1,2.1l1.2,10.4c0,0.4-0.3,0.8-0.7,0.9c-0.4,0-0.8-0.3-0.9-0.7l-1.2-10.4
			c0-0.4-0.2-0.8-0.5-1.1c-0.3-0.3-0.7-0.4-1.1-0.4l-64.9,3.8c-0.4,0-0.8,0.2-1,0.5c-0.3,0.3-0.4,0.7-0.4,1.1l4.8,82.9
			c0,0.4,0.2,0.8,0.5,1c0.3,0.3,0.7,0.4,1.1,0.4l5.2-0.4c0.4,0,0.8,0.3,0.9,0.7c0,0.4-0.3,0.8-0.7,0.9l-5.2,0.5
			C924.8,308.8,924.7,308.8,924.6,308.8z"/>
	</g>
	<g>
		<g>
			<path fill="#EE3B3B" d="M994.2,253.1h-36.7c-0.4,0-0.8-0.4-0.8-0.8c0-0.4,0.4-0.8,0.8-0.8h36.7c0.4,0,0.8,0.4,0.8,0.8
				C995,252.8,994.7,253.1,994.2,253.1z"/>
		</g>
		<g>
			<path fill="#EE3B3B" d="M980,259.2h-22.5c-0.4,0-0.8-0.4-0.8-0.8c0-0.4,0.4-0.8,0.8-0.8H980c0.4,0,0.8,0.4,0.8,0.8
				C980.9,258.9,980.5,259.2,980,259.2z"/>
		</g>
		<g>
			<g>
				<g>
					<path fill="#EE3B3B" d="M951.6,252.3c0,2.2-1.8,4-4,4c-2.2,0-4-1.8-4-4c0-2.2,1.8-4,4-4C949.8,248.3,951.6,250.1,951.6,252.3
						c0,0.4,0.6,0.4,0.6,0c0-1.9-1.2-3.6-3-4.3c-1.8-0.7-3.9-0.1-5.1,1.4c-1.2,1.5-1.4,3.6-0.4,5.2c1,1.7,2.9,2.5,4.8,2.2
						c2.2-0.4,3.7-2.3,3.7-4.5C952.2,251.9,951.6,251.9,951.6,252.3z"/>
					<path fill="#EE3B3B" d="M947.6,256.9c-1.7,0-3.2-0.9-4.1-2.3c-1-1.7-0.8-3.8,0.4-5.3c1.2-1.5,3.4-2.1,5.2-1.4
						c1.8,0.7,3,2.4,3.1,4.4c0,0,0,0,0,0c0,0,0,0,0,0c-0.1,2.3-1.7,4.2-3.8,4.6C948.2,256.9,947.9,256.9,947.6,256.9z M947.7,247.8
						c-1.3,0-2.6,0.6-3.5,1.6c-1.2,1.4-1.3,3.5-0.4,5c0.9,1.6,2.8,2.5,4.6,2.1c1.9-0.4,3.4-2,3.6-4c0,0-0.1,0-0.1,0
						c-0.1,0-0.1,0-0.2,0c-0.2,2.1-2,3.7-4.1,3.7c-2.2,0-4.1-1.9-4.1-4.1s1.9-4.1,4.1-4.1c2.1,0,3.9,1.6,4.1,3.7c0.1,0,0.1,0,0.2,0
						c0,0,0.1,0,0.1,0c-0.2-1.7-1.3-3.2-2.9-3.8C948.7,247.9,948.2,247.8,947.7,247.8z M947.6,248.4c-2.1,0-3.8,1.8-3.8,3.8
						s1.8,3.8,3.8,3.8c2.1,0,3.8-1.7,3.8-3.8C951.4,250.1,949.7,248.4,947.6,248.4z M951.7,252.3c0,0.2,0.2,0.2,0.2,0.2
						c0,0,0.1,0,0.2-0.1c0,0,0,0,0,0c0,0,0,0,0,0c0-0.1-0.1-0.1-0.2-0.1C951.9,252.1,951.7,252.1,951.7,252.3z"/>
				</g>
			</g>
			<g>
				<g>
					<path fill="#EE3B3B" d="M945.2,251.4c0.7,0.7,1.5,1.5,2.2,2.2c0.1,0.1,0.3,0.1,0.4,0c2.3-2.4,4.5-4.9,6.8-7.3
						c0.3-0.3-0.2-0.7-0.4-0.4c-2.3,2.4-4.5,4.9-6.8,7.3c0.1,0,0.3,0,0.4,0c-0.7-0.7-1.5-1.5-2.2-2.2
						C945.3,250.7,944.9,251.1,945.2,251.4L945.2,251.4z"/>
					<path fill="#EE3B3B" d="M947.6,253.8c-0.1,0-0.2,0-0.3-0.1l-2.2-2.2c-0.2-0.2-0.1-0.4,0-0.6c0.1-0.2,0.4-0.2,0.6,0l1.9,1.9
						l6.5-7c0.2-0.2,0.4-0.2,0.6,0c0.2,0.1,0.2,0.4,0,0.6l-6.8,7.3C947.9,253.7,947.8,253.8,947.6,253.8
						C947.6,253.8,947.6,253.8,947.6,253.8z M947.3,253.3l0.2,0.2c0,0,0.1,0,0.1,0c0,0,0.1,0,0.1,0l0.2-0.2H947.3z M945.3,251.3
						l1.9,1.9l0.2-0.2l-1.9-1.9c-0.1-0.1-0.2,0-0.2,0C945.3,251.1,945.2,251.2,945.3,251.3L945.3,251.3z M947.8,252.9l0.2,0.2l6.5-7
						c0.1-0.1,0-0.2,0-0.2c0,0-0.1-0.1-0.2,0L947.8,252.9z"/>
				</g>
			</g>
		</g>
		<g>
			<path fill="#EE3B3B" d="M994.2,276.2h-36.7c-0.4,0-0.8-0.4-0.8-0.8c0-0.4,0.4-0.8,0.8-0.8h36.7c0.4,0,0.8,0.4,0.8,0.8
				C995,275.9,994.7,276.2,994.2,276.2z"/>
		</g>
		<g>
			<path fill="#EE3B3B" d="M980,282.3h-22.5c-0.4,0-0.8-0.4-0.8-0.8s0.4-0.8,0.8-0.8H980c0.4,0,0.8,0.4,0.8,0.8
				S980.5,282.3,980,282.3z"/>
		</g>
		<g>
			<g>
				<g>
					<path fill="#EE3B3B" d="M951.6,275.3c0,2.2-1.8,4-4,4c-2.2,0-4-1.8-4-4c0-2.2,1.8-4,4-4C949.8,271.4,951.6,273.2,951.6,275.3
						c0,0.4,0.6,0.4,0.6,0c0-1.9-1.2-3.6-3-4.3c-1.8-0.7-3.9-0.1-5.1,1.4c-1.2,1.5-1.4,3.6-0.4,5.2c1,1.6,2.9,2.5,4.8,2.2
						c2.2-0.4,3.7-2.3,3.7-4.5C952.2,274.9,951.6,274.9,951.6,275.3z"/>
					<path fill="#EE3B3B" d="M947.6,280c-1.7,0-3.2-0.9-4.1-2.3c-1-1.7-0.8-3.8,0.4-5.3c1.2-1.5,3.4-2.1,5.2-1.4
						c1.8,0.7,3,2.4,3.1,4.4c0,0,0,0,0,0c0,0,0,0,0,0c-0.1,2.3-1.7,4.2-3.8,4.6C948.2,280,947.9,280,947.6,280z M947.7,270.9
						c-1.3,0-2.6,0.6-3.5,1.6c-1.2,1.4-1.3,3.5-0.4,5c0.9,1.6,2.8,2.5,4.6,2.1c1.9-0.4,3.4-2,3.6-4c0,0-0.1,0-0.1,0
						c-0.1,0-0.1,0-0.2,0c-0.2,2.1-2,3.7-4.1,3.7c-2.2,0-4.1-1.9-4.1-4.1c0-2.2,1.9-4.1,4.1-4.1c2.1,0,3.9,1.6,4.1,3.7
						c0.1,0,0.1,0,0.2,0c0,0,0.1,0,0.1,0c-0.2-1.7-1.3-3.2-2.9-3.8C948.7,271,948.2,270.9,947.7,270.9z M947.6,271.5
						c-2.1,0-3.8,1.8-3.8,3.8c0,2.1,1.8,3.8,3.8,3.8c2.1,0,3.8-1.7,3.8-3.8C951.4,273.2,949.7,271.5,947.6,271.5z M951.7,275.3
						c0,0.2,0.1,0.2,0.2,0.2c0,0,0.1,0,0.2-0.1c0,0,0,0,0,0c0,0,0,0,0,0c0-0.1-0.1-0.1-0.2-0.1C951.9,275.2,951.7,275.2,951.7,275.3
						z"/>
				</g>
			</g>
			<g>
				<g>
					<path fill="#EE3B3B" d="M945.2,274.5c0.7,0.7,1.5,1.5,2.2,2.2c0.1,0.1,0.3,0.1,0.4,0c2.3-2.4,4.5-4.9,6.8-7.3
						c0.3-0.3-0.2-0.7-0.4-0.4c-2.3,2.4-4.5,4.9-6.8,7.3c0.1,0,0.3,0,0.4,0c-0.7-0.7-1.5-1.5-2.2-2.2
						C945.3,273.8,944.9,274.2,945.2,274.5L945.2,274.5z"/>
					<path fill="#EE3B3B" d="M947.6,276.9c-0.1,0-0.2,0-0.3-0.1l-2.2-2.2c-0.2-0.2-0.1-0.4,0-0.6c0.1-0.2,0.4-0.2,0.6,0l1.9,1.9
						l6.5-7c0.2-0.2,0.4-0.2,0.6,0c0.2,0.1,0.2,0.4,0,0.6l-6.8,7.3C947.9,276.8,947.8,276.9,947.6,276.9
						C947.6,276.9,947.6,276.9,947.6,276.9z M947.3,276.4l0.2,0.2c0,0,0.1,0,0.1,0c0,0,0.1,0,0.1,0l0.2-0.2H947.3z M945.3,274.4
						l1.9,1.9l0.2-0.2l-1.9-1.9c-0.1-0.1-0.2,0-0.2,0C945.3,274.2,945.2,274.3,945.3,274.4L945.3,274.4z M947.8,276l0.2,0.2l6.5-7
						c0.1-0.1,0-0.2,0-0.2c0,0-0.1-0.1-0.2,0L947.8,276z"/>
				</g>
			</g>
		</g>
		<g>
			<path fill="#EE3B3B" d="M994.2,299.3h-36.7c-0.4,0-0.8-0.4-0.8-0.8c0-0.4,0.4-0.8,0.8-0.8h36.7c0.4,0,0.8,0.4,0.8,0.8
				C995,298.9,994.7,299.3,994.2,299.3z"/>
		</g>
		<g>
			<path fill="#EE3B3B" d="M980,305.4h-22.5c-0.4,0-0.8-0.4-0.8-0.8c0-0.4,0.4-0.8,0.8-0.8H980c0.4,0,0.8,0.4,0.8,0.8
				C980.9,305,980.5,305.4,980,305.4z"/>
		</g>
		<g>
			<g>
				<g>
					<path fill="#EE3B3B" d="M951.6,298.4c0,2.2-1.8,4-4,4c-2.2,0-4-1.8-4-4s1.8-4,4-4C949.8,294.4,951.6,296.2,951.6,298.4
						c0,0.4,0.6,0.4,0.6,0c0-1.9-1.2-3.6-3-4.3c-1.8-0.7-3.9-0.1-5.1,1.4c-1.2,1.5-1.4,3.6-0.4,5.2c1,1.6,2.9,2.5,4.8,2.2
						c2.2-0.4,3.7-2.3,3.7-4.5C952.2,298,951.6,298,951.6,298.4z"/>
					<path fill="#EE3B3B" d="M947.6,303.1c-1.7,0-3.2-0.9-4.1-2.3c-1-1.7-0.8-3.8,0.4-5.3c1.2-1.5,3.4-2.1,5.2-1.4
						c1.8,0.7,3,2.4,3.1,4.4c0,0,0,0,0,0c0,0,0,0,0,0c-0.1,2.3-1.7,4.2-3.8,4.6C948.2,303.1,947.9,303.1,947.6,303.1z M947.7,294
						c-1.3,0-2.6,0.6-3.5,1.6c-1.2,1.4-1.3,3.5-0.4,5c0.9,1.6,2.8,2.5,4.6,2.1c1.9-0.4,3.4-2,3.6-4c0,0-0.1,0-0.1,0
						c-0.1,0-0.1,0-0.2,0c-0.2,2.1-2,3.7-4.1,3.7c-2.2,0-4.1-1.9-4.1-4.1c0-2.2,1.9-4.1,4.1-4.1c2.1,0,3.9,1.6,4.1,3.7
						c0.1,0,0.1,0,0.2,0c0,0,0.1,0,0.1,0c-0.2-1.7-1.3-3.2-2.9-3.8C948.7,294.1,948.2,294,947.7,294z M947.6,294.6
						c-2.1,0-3.8,1.8-3.8,3.8c0,2.1,1.8,3.8,3.8,3.8c2.1,0,3.8-1.7,3.8-3.8C951.4,296.3,949.7,294.6,947.6,294.6z M951.7,298.4
						c0,0.2,0.1,0.2,0.2,0.2c0,0,0.1,0,0.2-0.1c0,0,0,0,0,0c0,0,0,0,0,0c0-0.1-0.1-0.1-0.2-0.1C951.9,298.3,951.7,298.3,951.7,298.4
						z"/>
				</g>
			</g>
			<g>
				<g>
					<path fill="#EE3B3B" d="M945.2,297.5c0.7,0.7,1.5,1.5,2.2,2.2c0.1,0.1,0.3,0.1,0.4,0c2.3-2.4,4.5-4.9,6.8-7.3
						c0.3-0.3-0.2-0.7-0.4-0.4c-2.3,2.4-4.5,4.9-6.8,7.3c0.1,0,0.3,0,0.4,0c-0.7-0.7-1.5-1.5-2.2-2.2
						C945.3,296.9,944.9,297.3,945.2,297.5L945.2,297.5z"/>
					<path fill="#EE3B3B" d="M947.6,300c-0.1,0-0.2,0-0.3-0.1l-2.2-2.2c-0.2-0.2-0.1-0.4,0-0.6c0.1-0.2,0.4-0.2,0.6,0l1.9,1.9l6.5-7
						c0.2-0.2,0.4-0.2,0.6,0c0.2,0.1,0.2,0.4,0,0.6l-6.8,7.3C947.9,299.9,947.8,299.9,947.6,300C947.6,300,947.6,300,947.6,300z
						 M947.3,299.4l0.2,0.2c0,0,0.1,0,0.1,0c0,0,0.1,0,0.1,0l0.2-0.2H947.3z M945.3,297.4l1.9,1.9l0.2-0.2l-1.9-1.9
						c-0.1-0.1-0.2,0-0.2,0C945.3,297.2,945.2,297.3,945.3,297.4L945.3,297.4z M947.8,299.1l0.2,0.2l6.5-7c0.1-0.1,0-0.2,0-0.2
						c0,0-0.1-0.1-0.2,0L947.8,299.1z"/>
				</g>
			</g>
		</g>
	</g>
</g>
</svg>
