<?xml version="1.0" encoding="utf-8"?>
<!-- Generator: Adobe Illustrator 21.0.2, SVG Export Plug-In . SVG Version: 6.00 Build 0)  -->
<svg version="1.1" xmlns="http://www.w3.org/2000/svg" xmlns:xlink="http://www.w3.org/1999/xlink" x="0px" y="0px"
	 viewBox="0 0 500 500" style="enable-background:new 0 0 500 500;" xml:space="preserve">
<style type="text/css">
	.st0{fill:#FFFFFF;}
	.st1{fill:#ED3A3A;}
	.st2{fill:#414042;}
	.st3{fill:#808080;}
	.st4{fill:#EFF0F0;}
	.st5{fill:#231F20;}
	.st6{fill:none;stroke:#FFFFFF;stroke-width:2;stroke-miterlimit:10;}
	.st7{opacity:0.86;fill:url(#SVGID_3_);}
	.st8{opacity:0.24;fill:#A01717;}
	.st9{opacity:0.24;fill:#414042;}
	.st10{opacity:0.24;fill:#231F20;}
	.st11{fill:#ED3A3A;stroke:#FFFFFF;stroke-width:4;stroke-miterlimit:10;}
	.st12{fill:#808083;stroke:#FFFFFF;stroke-width:4;stroke-miterlimit:10;}
	.st13{fill:none;stroke:#231F20;stroke-width:2;stroke-miterlimit:10;}
	.st14{fill:#FFFFFF;stroke:#231F20;stroke-width:4;stroke-miterlimit:10;}
	.st15{fill:url(#SVGID_4_);}
	.st16{fill:url(#SVGID_5_);}
	.st17{clip-path:url(#SVGID_7_);}
	.st18{clip-path:url(#SVGID_9_);fill:#F04C4C;}
	.st19{clip-path:url(#SVGID_11_);}
	.st20{clip-path:url(#SVGID_13_);fill:#FFFFFF;}
	.st21{clip-path:url(#SVGID_15_);}
	.st22{clip-path:url(#SVGID_17_);fill:#F04C4C;}
	.st23{clip-path:url(#SVGID_19_);}
	.st24{clip-path:url(#SVGID_21_);fill:#FFFFFF;}
	.st25{clip-path:url(#SVGID_23_);}
	.st26{clip-path:url(#SVGID_25_);fill:#F04C4C;}
	.st27{clip-path:url(#SVGID_27_);}
	.st28{clip-path:url(#SVGID_29_);fill:#FFFFFF;}
	.st29{clip-path:url(#SVGID_31_);}
	.st30{clip-path:url(#SVGID_33_);fill:#FFFFFF;}
	.st31{clip-path:url(#SVGID_35_);}
	.st32{clip-path:url(#SVGID_37_);fill:#F04C4C;}
	.st33{clip-path:url(#SVGID_39_);}
	.st34{clip-path:url(#SVGID_41_);fill:#FFFFFF;}
	.st35{clip-path:url(#SVGID_43_);}
	.st36{clip-path:url(#SVGID_45_);fill:#F04C4C;}
	.st37{clip-path:url(#SVGID_47_);}
	.st38{clip-path:url(#SVGID_49_);fill:#FFFFFF;}
	.st39{clip-path:url(#SVGID_51_);}
	.st40{clip-path:url(#SVGID_53_);fill:#FF7270;}
	.st41{clip-path:url(#SVGID_55_);}
	.st42{clip-path:url(#SVGID_57_);fill:#F53D3D;}
	.st43{clip-path:url(#SVGID_59_);}
	.st44{clip-path:url(#SVGID_61_);fill:#E13A3A;}
	.st45{clip-path:url(#SVGID_63_);}
	.st46{clip-path:url(#SVGID_65_);fill:#B21109;}
	.st47{clip-path:url(#SVGID_67_);}
	.st48{clip-path:url(#SVGID_69_);fill:#F53D3D;}
	.st49{clip-path:url(#SVGID_71_);}
	.st50{clip-path:url(#SVGID_73_);fill:#E60404;}
	.st51{clip-path:url(#SVGID_75_);}
	.st52{clip-path:url(#SVGID_77_);fill:#FFFFFF;}
	.st53{clip-path:url(#SVGID_79_);}
	.st54{clip-path:url(#SVGID_81_);fill:#F53D3D;}
	.st55{opacity:0.35;fill:#414042;}
	.st56{opacity:0.35;fill:#ED3A3A;}
	.st57{opacity:0.35;fill:#A5A7AA;}
	.st58{opacity:0.13;}
	.st59{opacity:0.29;}
	.st60{clip-path:url(#SVGID_85_);}
	.st61{clip-path:url(#SVGID_87_);fill:#FF7270;}
	.st62{clip-path:url(#SVGID_89_);}
	.st63{clip-path:url(#SVGID_91_);fill:#F53D3D;}
	.st64{clip-path:url(#SVGID_93_);}
	.st65{clip-path:url(#SVGID_95_);fill:#E13A3A;}
	.st66{clip-path:url(#SVGID_97_);}
	.st67{clip-path:url(#SVGID_99_);fill:#B21109;}
	.st68{clip-path:url(#SVGID_101_);}
	.st69{clip-path:url(#SVGID_103_);fill:#F53D3D;}
	.st70{clip-path:url(#SVGID_105_);}
	.st71{clip-path:url(#SVGID_107_);fill:#E60404;}
	.st72{clip-path:url(#SVGID_109_);}
	.st73{clip-path:url(#SVGID_111_);fill:#FFFFFF;}
	.st74{clip-path:url(#SVGID_113_);}
	.st75{clip-path:url(#SVGID_115_);fill:#F53D3D;}
	.st76{fill:#F5655E;}
	.st77{fill:url(#SVGID_116_);}
	.st78{fill:none;stroke:#ED3A3A;stroke-width:4;stroke-miterlimit:10;}
	.st79{opacity:0.2;}
</style>
<g id="Style_Details">
</g>
<g id="Layer_1">
	<g class="st79">
		<path class="st0" d="M76.5,166c32.8-40.4,69.3-69.8,109.6-88.2l13.1,27.5c-32.1,18.4-59.5,41.3-82.1,68.7
			c-22.7,27.4-34,55.1-34,83.2c0,5.5,1.7,9.7,5.2,12.4c3.4,2.7,7.9,4.1,13.4,4.1c29.8-3.2,45.8-4.8,48.1-4.8
			c15.1,0,31.5,5.5,49.2,16.5c17.6,11,26.5,29.8,26.5,56.4c0,22.5-7.3,41.5-22,57.1c-14.7,15.6-35.5,23.4-62.6,23.4
			c-31.6,0-58.4-12.3-80.4-36.8c-22-24.6-33-55.7-33-93.3C27.4,248.4,43.8,206.4,76.5,166z M324.5,164.2
			c33.2-39.7,69.5-68.5,109-86.4l13.1,27.5c-32.1,18.4-59.5,41.1-82.1,68s-34,54.4-34,82.5c0,5.1,1.4,9.3,4.1,12.8
			c2.7,3.5,7.6,5.2,14.4,5.2c29.3-3.2,45.4-4.8,48.1-4.8c16.9,0,33.8,6.1,50.5,18.2c16.7,12.2,25.1,30.1,25.1,54
			c0,18.8-6.5,37-19.6,54.7c-13.1,17.6-35,26.5-65.7,26.5c-33,0-60-12.7-81.1-38.2c-21.1-25.5-31.6-54.3-31.6-86.4
			C274.6,248.4,291.3,204,324.5,164.2z"/>
	</g>
</g>
</svg>
