<?xml version="1.0" encoding="utf-8"?>
<!-- Generator: Adobe Illustrator 21.0.2, SVG Export Plug-In . SVG Version: 6.00 Build 0)  -->
<svg version="1.1" id="Layer_1" xmlns="http://www.w3.org/2000/svg" xmlns:xlink="http://www.w3.org/1999/xlink" x="0px" y="0px"
	 viewBox="0 0 462.6 520.1" style="enable-background:new 0 0 462.6 520.1;" xml:space="preserve">
<style type="text/css">
	.st0{fill:#F38888;}
	.st1{fill:#EE3B3B;}
	.st2{fill:#FFFFFF;}
	.st3{fill:#F16262;}
	.st4{fill:none;stroke:#EE3B3B;stroke-width:2;stroke-linejoin:round;}
	.st5{fill:none;stroke:#EE3B3B;stroke-width:2;stroke-linejoin:round;stroke-dasharray:8.1365,8.1365;}
	.st6{fill:none;stroke:#EE3B3B;stroke-width:2;}
	.st7{fill:none;stroke:#EE3B3B;stroke-width:2;stroke-dasharray:7.5339,7.5339;}
	.st8{fill:none;stroke:#EE3B3B;stroke-width:2;stroke-dasharray:7.8832,7.8832;}
	.st9{fill:none;stroke:#EE3B3B;stroke-width:2;stroke-dasharray:9.0769,9.0769;}
	.st10{fill:none;stroke:#EE3B3B;stroke-width:2;stroke-dasharray:8.2443,8.2443;}
	.st11{fill:none;stroke:#EE3B3B;stroke-width:2;stroke-dasharray:7.196,7.196;}
	.st12{fill:none;stroke:#EE3B3B;stroke-width:2;stroke-dasharray:8,8;}
	.st13{fill:none;stroke:#EE3B3B;stroke-width:2;stroke-dasharray:8.1423,8.1423;}
	.st14{fill:none;stroke:#EE3B3B;stroke-width:3;stroke-dasharray:8,8;}
	.st15{fill:#FFFFFF;stroke:#EE3B3B;stroke-width:3;stroke-dasharray:8,8;}
	.st16{fill:none;stroke:#FFFFFF;stroke-width:2.7;}
	.st17{fill:#F7A4A6;}
	.st18{fill:#424143;}
	.st19{opacity:0.24;fill:#A01D21;}
	.st20{opacity:0.24;fill:#231F20;}
</style>
<g id="Welcome_3_">
	<g id="Desktop_3_" transform="translate(-162.000000, -2858.000000)">
		<g id="Illustration2" transform="translate(162.000000, 2858.000000)">
			<circle id="Oval-6-Copy-2" class="st14" cx="187.3" cy="410" r="91.5"/>
			<path id="Shape_26_" class="st1" d="M155.2,388.8c-4.9-5.8-5.5-14.1-1.4-20.4s11.9-9.3,19.2-7.1c7.3,2.1,12.3,8.8,12.3,16.4v0.8
				h-0.1c-3.4,0-6.9,0.4-10.2,1.1V379c0.1-0.5,0.1-0.9,0.1-1.4c0-3.2-2.2-6.1-5.3-6.8c-3.1-0.8-6.4,0.7-7.9,3.6
				c-1.5,2.9-0.8,6.4,1.6,8.5c0.1,0.1,0.3,0.3,0.4,0.4c-2.6,1.3-5.1,2.8-7.4,4.5C156,388.1,155.6,388.4,155.2,388.8z M144,421.6
				c-0.9-1-1.4-2.3-1.2-3.7c0.3-2.5,2.5-4.4,5-4.3h1.3c2.6-15.5,18-27,36.1-27c7.2,0,14.2,1.8,20.4,5.4c0.1,0.1,0.3,0.1,0.5,0.1
				c0.2,0,0.3,0,0.4-0.1c2.9-1.7,6.2-2.6,9.5-2.5c0.7,0,1.3,0,2,0.1c1.2,0.1,2.2,0.9,2.7,2c0.4,1.1,0.2,2.4-0.7,3.2
				c-2,1.9-3.2,4.3-3.6,7c0.3,0.4,0.6,0.8,0.8,1.3c1.7,2.7,3.7,5.1,6,7.2h3.3c2.9,0,5.3,2.4,5.3,5.3v10.3c0,2.1-0.9,4.2-2.5,5.6
				c-5,4.3-10.6,7.9-16.6,10.5c-0.5,0.2-0.8,0.6-1,1.1l-3.9,12.8c-0.5,1.5-1.9,2.6-3.5,2.6h-5.2c-1.6,0-3-1.1-3.5-2.6l-1.9-6.4
				c-0.1-0.2-0.3-0.4-0.5-0.4h-0.1c-5.3,1-10.7,1-16,0H177c-0.3,0-0.5,0.2-0.6,0.4l-1.9,6.4c-0.5,1.6-1.9,2.7-3.5,2.6h-5.2
				c-1.6,0-3-1-3.5-2.6l-5.2-17c-0.1-0.3-0.2-0.5-0.4-0.7c-4-4.2-6.6-9.4-7.7-15h-1.5C146.2,423.2,144.9,422.6,144,421.6L144,421.6z
				 M203.6,413.8c0,2.3,1.8,4.1,4.1,4.1s4.1-1.8,4.1-4.1s-1.8-4.1-4.1-4.1C205.5,409.7,203.6,411.5,203.6,413.8z"/>
			<circle id="Oval-6-Copy-2_1_" class="st14" cx="187.8" cy="129.5" r="60"/>
			<g id="Group-16" transform="translate(306.000000, 95.000000)">
				<circle id="Oval-6-Copy" class="st15" cx="78.3" cy="86" r="67.5"/>
				<circle id="Oval" class="st3" cx="86.8" cy="93.5" r="1"/>
				<path id="Shape_25_" class="st3" d="M111.9,86.5H70.7c-1,0-1.9,0.8-1.9,1.9v26.2c0,1,0.8,1.9,1.9,1.9h41.2c1,0,1.9-0.8,1.9-1.9
					V88.4C113.8,87.4,112.9,86.5,111.9,86.5z M92.2,103.9l-8.6-8.5l1-4.6l4.6-1l8.6,8.5L92.2,103.9z"/>
				<path id="Shape_24_" class="st3" d="M84.2,85.5v-1.8c0-1,0.8-1.8,1.8-1.8h10.6c1,0,1.8,0.8,1.8,1.8v1.8h3.4v-1.8
					c0-2.8-2.3-5.2-5.2-5.2H86c-2.9,0-5.2,2.3-5.2,5.2v1.8H84.2z"/>
				<path id="Shape_23_" class="st3" d="M67.4,79.9l2.8,5.4h7l-2.6-12.7L85,62.2c1.1-1.1,1.1-2.8,0-3.9c-1.1-1.1-2.8-1.1-3.9,0
					L70.8,68.7l-24.8-5l-2.2,2.2L63.5,76L53.4,86.1l-5.3-1.1l-2.2,2.2l6.8,3.5l3.5,6.8l2.2-2.2L57.3,90L67.4,79.9z"/>
			</g>
			<g id="Group-16-Copy">
				<g id="Group-17">
					<circle id="Oval-6-Copy_1_" class="st1" cx="78.3" cy="86" r="67.5"/>
					<ellipse id="Oval-6-Copy_2_" class="st16" cx="78.8" cy="86" rx="61" ry="60.5"/>
					<path id="Shape_22_" class="st2" d="M79,70.7l-0.2-0.2l-0.3,0.2l0.3-0.2L79,70.7z M97.3,84.3l-0.2,18.6c0,1-0.8,1.7-1.8,1.7
						H83.7c-1,0-1.8-0.8-1.8-1.7V93h-6.1v9.8c0,1-0.8,1.7-1.8,1.7H62.3c-1,0-1.8-0.8-1.8-1.7V84.1l-3.8,2.8c-0.7,0.6-2,0.5-2.6-0.2
						c-0.6-0.7-0.2-1.9,0.4-2.5l23.2-17.3c0.4-0.2,0.7-0.4,1.1-0.4c0.4,0,0.7,0.1,1.1,0.4l6.2,4.6v-3.3c0-1,0.8-1.7,1.8-1.7h4.9
						c1,0,1.8,0.8,1.8,1.7v9.6l8.4,6.3c0.8,0.6,0.9,1.8,0.4,2.5c-0.6,0.8-1.9,0.8-2.6,0.2L97.3,84.3z"/>
				</g>
			</g>
			<circle id="Oval-6_1_" class="st17" cx="245.8" cy="245.5" r="109"/>
			<g id="Group_2_" transform="translate(160.000000, 165.000000)">
				<g transform="translate(28.995283, 9.490535)">
					<g id="Shape_21_" transform="translate(23.000000, 4.745268)">
						<path class="st2" d="M27.2,28.8v81.9c0,1.1-0.7,2-1.6,2h-1.1c-0.9,0-1.6-0.9-1.6-2V28.8v-0.1l0,0c0-0.3-0.1-0.6-0.2-0.8
							c-0.5-2.1-2-3.6-3.8-3.6c-2.1,0-3.8,2.3-3.9,5.1c-0.1,3,1.5,4.2,2.8,4.7c0.9,0.4,1.6,1.4,1.6,2.7l0,0c0,1.8-1.3,3.2-2.7,2.8
							c-2.5-0.7-5.9-3-6-10.2c0-5.8,3.6-10.6,8.1-10.6c4.1,0,7.5,4,8,9.3C27.1,28.3,27.2,28.5,27.2,28.8z"/>
						<path class="st2" d="M35.1,112.7h-0.5c-1,0-1.9-0.8-1.9-1.9V28.6c0-1,0.8-1.9,1.9-1.9h0.5c1,0,1.9,0.8,1.9,1.9v82.3
							C37,111.9,36.1,112.7,35.1,112.7z"/>
						<path class="st2" d="M58.7,29.3c-0.1,5.4-3.3,8.2-5.7,9.5c-1.3,0.7-2.8-0.5-2.8-2.4l0,0c0-1.1,0.5-2.1,1.3-2.4
							c1.2-0.6,2.9-1.9,3-4.6c0.1-2.8-1.8-5.1-3.9-5.1c-1.9,0-3.5,1.8-3.8,4.2l0,0c0,0.1,0,0.2,0,0.3v81.9c0,1.1-0.7,2-1.6,2h-1.1
							c-0.9,0-1.6-0.9-1.6-2V30.5c0-0.4,0-0.8,0-1.2c0-5.8,3.6-10.6,8.1-10.6C55.1,18.8,58.8,23.5,58.7,29.3z"/>
					</g>
					<path id="Shape_20_" class="st2" d="M67.4,124.3H48.2c-1.3,0-2.3-1-2.3-2.3l0,0c0-1.3,1-2.3,2.3-2.3h19.2c1.3,0,2.3,1,2.3,2.3
						l0,0C69.7,123.3,68.7,124.3,67.4,124.3z"/>
					<path id="Shape_19_" class="st2" d="M67.4,23.2H48.2c-1.3,0-2.3-1-2.3-2.3l0,0c0-1.3,1-2.3,2.3-2.3h19.2c1.3,0,2.3,1,2.3,2.3
						l0,0C69.7,22.1,68.7,23.2,67.4,23.2z"/>
					<path id="Shape_18_" class="st1" d="M73.4,131.2H43.1c-1.3,0-2.3-1-2.3-2.3l0,0c0-1.3,1-2.3,2.3-2.3h30.3c1.3,0,2.3,1,2.3,2.3
						l0,0C75.7,130.1,74.7,131.2,73.4,131.2z"/>
					<path id="Shape-Copy" class="st1" d="M103.4,138H13.1c-1.3,0-2.3-1-2.3-2.3s1-2.3,2.3-2.3h90.3c1.3,0,2.3,1,2.3,2.3
						S104.7,138,103.4,138z"/>
				</g>
				<path id="Shape_17_" class="st1" d="M159.3,94.4l-18.5-47.5c0-0.1-0.1-0.3-0.2-0.4l0.1-16.9c1.5-1.1,2.5-2.9,2.5-4.9
					c0-3.3-2.7-6.1-6.1-6.1c-3.3,0-6,2.7-6,6c0,0.3,0,0.5,0,0.8c-4.2,2.7-9.4,3.1-15.8,1.4c-3.3-0.9-6.3-2.3-8.4-3.4
					c-2.2-1.1-3.5-2-3.5-2.1c0,0-0.1-0.1-0.2-0.1l0,0c-0.4-0.3-0.8-0.4-1.3-0.4H71.6c-0.3,0-0.6,0.1-0.9,0.2c-0.5-0.1-1.1,0-1.6,0.4
					c0,0-5.3,3.7-11.9,5.5c-6.7,1.9-12.2,1.2-16.4-1.8c-0.1,1.5-0.8,2.9-1.8,4c3.2,2.1,7,3.2,11.2,3.2c2.6,0,5.3-0.4,8.3-1.2
					c5.9-1.6,10.6-4.5,12.4-5.6c0.2,0.1,0.5,0.1,0.7,0.1h30.2c1.9,1.2,6.6,3.9,12.2,5.5c2.9,0.8,5.7,1.2,8.3,1.2c4,0,7.7-1,10.8-2.9
					c1.1,0.9,2.4,1.5,3.9,1.5L137,48.1l0,0l-18,46.3h-2.2c0,10.4,10,18.8,22.4,18.8c12.4,0,22.4-8.4,22.4-18.8H159.3z M136.1,27
					c-0.9-0.4-1.5-1.3-1.5-2.3c0-1.4,1.1-2.5,2.5-2.5c0.4,0,0.7,0.1,1.1,0.2c0.8,0.4,1.4,1.3,1.4,2.3c0,1.4-1.1,2.5-2.5,2.5
					C136.8,27.2,136.4,27.1,136.1,27z M122.8,94.4l16.3-41.9l16.3,41.9L122.8,94.4L122.8,94.4z"/>
				<path id="Shape_16_" class="st1" d="M34.8,18.7c-3.3,0-6.1,2.7-6.1,6.1c0,1.9,0.9,3.7,2.4,4.8c1,0.8,2.2,1.2,3.6,1.3h0.1
					c1.7,0,3.2-0.7,4.2-1.8c1-1,1.7-2.4,1.8-4v-0.4C40.8,21.4,38.1,18.7,34.8,18.7z M36.2,26.8c-0.4,0.3-0.9,0.5-1.4,0.5
					c-1.4,0-2.5-1.1-2.5-2.5c0-1.3,1-2.4,2.3-2.5h0.2c1.4,0,2.5,1.1,2.5,2.5C37.3,25.6,36.9,26.3,36.2,26.8z"/>
				<path id="Shape_15_" class="st1" d="M53.6,94.9l-18.5-48c-0.1-0.2-0.2-0.4-0.3-0.5l-0.1-15.6c-1.3,0-2.6-0.5-3.6-1.3l0.1,18.9
					L13.3,94.9H11c0,10.4,10,18.8,22.4,18.8s22.4-8.4,22.4-18.8L53.6,94.9L53.6,94.9z M17.2,94.9l16.3-42.4l16.3,42.4H17.2z"/>
			</g>
		</g>
	</g>
</g>
</svg>
